<?xml version="1.0" encoding="iso-8859-1"?>
<!-- Uploaded to: SVG Repo, www.svgrepo.com, Transformed by: SVG Repo Tools -->
<!DOCTYPE svg PUBLIC "-//W3C//DTD SVG 1.1//EN" "http://www.w3.org/Graphics/SVG/1.1/DTD/svg11.dtd">
<svg fill="#000000" height="800px" width="800px" version="1.1" id="Capa_1" xmlns="http://www.w3.org/2000/svg" xmlns:xlink="http://www.w3.org/1999/xlink" 
	 viewBox="0 0 477.205 477.205" xml:space="preserve">
<g>
	<path d="M472.361,246.794c-0.818-0.8-1.926-1.237-3.067-1.21c-0.991,0.023-1.986,0.039-2.978,0.06
		c-4.091-15.746-15.741-28.339-31.286-33.59c-11.206-13.631-27.646-21.421-45.313-21.421c-7.778,0-15.3,1.518-22.248,4.359
		c-21.756-21.155-44.341-20.923-53.848-19.615c-2.996-13.967-10.811-26.261-22.321-34.966c-12.705-9.61-28.391-13.699-44.172-11.508
		c-7.152,0.992-13.934,3.218-20.213,6.631c-12.754-18.474-34.78-28.279-57.265-25.157c-10.349,1.435-20.044,5.519-28.25,11.868
		c-9.19-6.793-20.693-9.761-32.088-8.18c-4.146,0.575-8.143,1.724-11.928,3.426c-10.187-14.53-27.588-22.208-45.397-19.739
		c-23.948,3.322-40.578,27.404-37.89,54.234c-2.063,2.119-3.872,4.503-5.406,7.1c-1.02-0.216-2.1-0.059-3.025,0.482
		c-1.303,0.763-2.103,2.158-2.103,3.668v46.809c0,1.543,0.836,2.965,2.185,3.714c0.12,0.066,3.817,2.103,10.861,5.51v135.218
		c0,33.049,23.563,60.694,54.77,67.027v19.297c0,20.068,16.326,36.395,36.394,36.395s36.394-16.327,36.394-36.395v-17.932h185.961
		v17.932c0,20.068,16.326,36.395,36.393,36.395c20.067,0,36.394-16.327,36.394-36.395v-18.777
		c32.64-5.158,57.679-33.48,57.679-67.547v-52.194h8.796c2.347,0,4.25-1.903,4.25-4.25v-48.209
		C473.641,248.689,473.18,247.593,472.361,246.794z M429.173,218.333c0.535,0.68,1.264,1.181,2.09,1.435
		c12.45,3.836,22.306,13.771,26.246,26.026c-6.195,0.087-12.391,0.136-18.523,0.136c-0.017,0-0.013,0-0.03,0
		c-142.13,0-251.227-23.49-317.706-43.195c-55.367-16.412-91.147-32.977-104.932-39.87c5.251-8.466,14.549-13.749,24.703-13.749
		c0.39,0,0.777,0.015,1.163,0.031c0.966,0.045,1.918-0.251,2.698-0.825c9.252-6.816,20.227-10.419,31.739-10.419
		c22.559,0,42.83,14.265,50.443,35.497c0.424,1.183,1.35,2.118,2.53,2.553c1.178,0.435,2.489,0.326,3.582-0.298
		c6.803-3.893,14.55-5.951,22.403-5.951c15.4,0,29.598,7.743,37.978,20.712c0.863,1.335,2.4,2.08,3.982,1.923
		c1.582-0.154,2.947-1.178,3.536-2.655c4.843-12.137,16.411-19.98,29.471-19.98c17.494,0,31.727,14.232,31.727,31.727
		c0,1.423-0.103,2.894-0.308,4.372c-0.202,1.46,0.368,2.92,1.504,3.859c1.136,0.938,2.677,1.221,4.074,0.747
		c9.228-3.137,18.893-4.727,28.727-4.727c17.095,0,33.704,4.849,48.033,14.023c1.854,1.189,4.313,0.761,5.658-0.985
		c9.591-12.447,24.083-19.586,39.759-19.586C405.199,199.133,419.58,206.131,429.173,218.333z M29.069,122.38
		c5.673-9.085,14.228-14.842,24.088-16.21c15.717-2.176,31.049,5.271,39.052,18.983c1.171,2.007,3.736,2.702,5.76,1.558
		c3.882-2.192,8.092-3.614,12.512-4.228c10.159-1.403,20.417,1.666,28.152,8.435c1.602,1.402,3.994,1.402,5.596,0.001
		c7.503-6.56,16.697-10.753,26.589-12.125c20.495-2.839,40.537,6.831,51.068,24.642c0.586,0.992,1.551,1.703,2.671,1.971
		c1.122,0.268,2.302,0.068,3.274-0.552c6.236-3.981,13.121-6.516,20.464-7.535c13.53-1.873,26.981,1.628,37.877,9.868
		c10.895,8.24,17.929,20.23,19.806,33.76c0.168,1.216,0.863,2.298,1.891,2.97c1.026,0.672,2.304,0.864,3.486,0.532
		c1.04-0.293,24.467-6.531,48.013,14.618c-5.067,3.072-9.696,6.923-13.709,11.499c-14.943-8.771-31.938-13.389-49.393-13.389
		c-8.671,0-17.224,1.13-25.507,3.365c-0.471-21.775-18.331-39.342-40.217-39.342c-14.109,0-26.845,7.219-34.102,18.873
		c-10.142-11.928-24.962-18.873-40.864-18.873c-7.71,0-15.335,1.669-22.314,4.86c-9.933-22.112-32.122-36.661-56.643-36.661
		c-12.844,0-25.114,3.872-35.58,11.213c-0.007,0-0.013,0-0.02,0c-6.696,0-13.098,1.788-18.67,4.982
		C22.522,137.319,24.845,129.144,29.069,122.38z M135.668,440.81c0,15.381-12.513,27.895-27.894,27.895
		c-15.38,0-27.894-12.514-27.894-27.895v-18.143c1.692,0.126,3.396,0.212,5.12,0.212h50.667V440.81z M394.416,440.81
		c0,15.381-12.513,27.895-27.894,27.895c-15.38,0-27.894-12.514-27.894-27.895v-17.932h53.574c0.742,0,1.477-0.033,2.213-0.056
		V440.81z M392.203,414.379H85.001c-33.024,0-59.891-26.868-59.891-59.893V223.27c18.709,8.588,50.558,21.855,93.732,34.991
		c66.477,20.226,174.325,44.336,310.602,44.338c0.006,0,0.011,0,0.017,0c7.511,0,15.121-0.078,22.634-0.222v47.901
		c-0.139-0.014-0.274-0.042-0.417-0.042H252.232c-2.347,0-4.25,1.903-4.25,4.25s1.903,4.25,4.25,4.25h199.445
		c0.086,0,0.167-0.021,0.251-0.025C449.752,389.77,423.806,414.379,392.203,414.379z M465.141,293.792l-8.893,0.001
		c-8.91,0.203-17.921,0.306-26.787,0.306c-0.005,0-0.012,0-0.017,0c-135.083-0.001-241.959-23.862-307.83-43.879
		c-62.008-18.843-100.298-37.9-109.549-42.728v-37.223c13.744,6.941,49.569,23.636,106.433,40.516
		c67.079,19.912,177.121,43.646,320.458,43.646c0.009,0,0.022,0,0.031,0c8.653,0,17.431-0.086,26.154-0.257V293.792z"/>
	<path d="M373.383,185.137c12.077,0,21.901-9.825,21.901-21.901c0-12.077-9.825-21.901-21.901-21.901
		c-12.077,0-21.901,9.825-21.901,21.901C351.481,175.312,361.306,185.137,373.383,185.137z M373.383,149.834
		c7.39,0,13.401,6.012,13.401,13.401c0,7.39-6.012,13.401-13.401,13.401c-7.39,0-13.401-6.012-13.401-13.401
		C359.981,155.846,365.993,149.834,373.383,149.834z"/>
	<path d="M330.939,134.501c14.842,0,26.917-12.075,26.917-26.917c0-14.841-12.075-26.916-26.917-26.916
		c-14.841,0-26.916,12.075-26.916,26.916C304.023,122.426,316.098,134.501,330.939,134.501z M330.939,89.168
		c10.155,0,18.417,8.261,18.417,18.416c0,10.155-8.262,18.417-18.417,18.417c-10.155,0-18.416-8.262-18.416-18.417
		C312.523,97.429,320.785,89.168,330.939,89.168z"/>
	<path d="M203.855,101.953c6.755,0,12.25-5.495,12.25-12.25c0-6.755-5.495-12.25-12.25-12.25c-6.755,0-12.25,5.495-12.25,12.25
		C191.605,96.458,197.1,101.953,203.855,101.953z M203.855,85.953c2.068,0,3.75,1.682,3.75,3.75s-1.682,3.75-3.75,3.75
		c-2.068,0-3.75-1.682-3.75-3.75S201.788,85.953,203.855,85.953z"/>
	<path d="M149.415,69.833c19.253,0,34.917-15.663,34.917-34.916C184.332,15.663,168.668,0,149.415,0
		c-19.253,0-34.916,15.663-34.916,34.917C114.499,54.17,130.162,69.833,149.415,69.833z M149.415,8.5
		c14.566,0,26.417,11.851,26.417,26.417c0,14.566-11.851,26.416-26.417,26.416c-14.566,0-26.416-11.85-26.416-26.416
		C122.999,20.351,134.849,8.5,149.415,8.5z"/>
	<path d="M405.606,69.834c7.49,0,13.583-6.093,13.583-13.583c0-7.49-6.093-13.583-13.583-13.583c-7.49,0-13.583,6.093-13.583,13.583
		C392.023,63.741,398.117,69.834,405.606,69.834z M405.606,51.168c2.803,0,5.083,2.28,5.083,5.083c0,2.803-2.28,5.083-5.083,5.083
		c-2.803,0-5.083-2.28-5.083-5.083C400.523,53.448,402.804,51.168,405.606,51.168z"/>
	<path d="M211.855,350.236h-83.25c-2.347,0-4.25,1.903-4.25,4.25s1.903,4.25,4.25,4.25h83.25c2.347,0,4.25-1.903,4.25-4.25
		S214.203,350.236,211.855,350.236z"/>
</g>
<g>
</g>
<g>
</g>
<g>
</g>
<g>
</g>
<g>
</g>
<g>
</g>
<g>
</g>
<g>
</g>
<g>
</g>
<g>
</g>
<g>
</g>
<g>
</g>
<g>
</g>
<g>
</g>
<g>
</g>
</svg>