<?xml version="1.0" encoding="iso-8859-1"?>
<!-- Uploaded to: SVG Repo, www.svgrepo.com, Transformed by: SVG Repo Tools -->
<svg fill="#000000" height="800px" width="800px" version="1.1" id="Layer_1" xmlns="http://www.w3.org/2000/svg" xmlns:xlink="http://www.w3.org/1999/xlink" 
	 viewBox="0 0 512.001 512.001" xml:space="preserve">
<g>
	<g>
		<path d="M369.919,181.356V94.549c0-6.542-5.303-11.844-11.844-11.844h-33.436v-70.86C324.638,5.303,319.336,0,312.794,0h-7.452
			h-49.145h-90.208c-2.539,0-5.01,0.816-7.051,2.327L114.901,34.95c-5.256,3.894-6.36,11.311-2.467,16.568
			c2.323,3.136,5.901,4.795,9.526,4.795c2.449,0,4.921-0.758,7.041-2.327L169.9,23.688h74.454v59.016h-33.436
			c-6.542,0-11.844,5.303-11.844,11.844v86.809c-41.869,9.6-73.206,47.133-73.206,91.873v226.926
			c0,6.542,5.303,11.844,11.844,11.844h293.57c6.542,0,11.844-5.303,11.844-11.844V273.23
			C443.125,228.491,411.789,190.957,369.919,181.356z M268.042,23.688h32.909v59.016h-32.909V23.688z M222.76,153.801h57.382
			c6.542,0,11.844-5.303,11.844-11.844s-5.303-11.844-11.844-11.844H222.76v-23.719h33.437h56.598h33.436v72.561H222.76V153.801z
			 M312.795,354.648c20.352,0,36.909-16.557,36.909-36.909c0-7.05-1.989-13.641-5.432-19.249h25.863v140.745l-112.819-0.001
			c4.093-6.669,6.459-14.508,6.459-22.89c-0.001-24.201-19.69-43.891-43.891-43.891c-7.615,0-14.78,1.952-21.028,5.377v-79.34
			h73.795v99.641c0,6.542,5.303,11.844,11.844,11.844s11.844-5.303,11.844-11.844v-47.367
			C301.298,353.244,306.884,354.648,312.795,354.648z M299.574,317.739c0-7.29,5.93-13.221,13.221-13.221
			c7.29,0.001,13.221,5.932,13.221,13.221c0,7.289-5.93,13.221-13.221,13.221C305.504,330.96,299.574,325.029,299.574,317.739z
			 M240.086,416.344c0,11.139-9.062,20.201-20.202,20.201c-11.14,0-20.203-9.063-20.203-20.201c0-11.14,9.062-20.203,20.203-20.203
			C231.024,396.141,240.086,405.203,240.086,416.344z M419.436,488.312H149.555V273.23c0-38.922,31.666-70.588,70.588-70.588h52.509
			V274.8h-85.64c-6.542,0-11.844,5.303-11.844,11.844v164.432c0,6.542,5.303,11.844,11.844,11.844l194.967,0.001
			c3.141,0,6.154-1.248,8.375-3.469c2.221-2.221,3.469-5.234,3.469-8.375V286.645c0-6.542-5.303-11.844-11.844-11.844h-85.64
			v-72.159h52.509c38.922,0,70.588,31.666,70.588,70.588V488.312z"/>
	</g>
</g>
<g>
	<g>
		<path d="M126.296,79.247c-2.247-2.827-5.662-4.476-9.273-4.476c-3.611,0-7.026,1.649-9.274,4.476
			c-6.491,8.17-38.874,50.092-38.874,73.109c0,26.549,21.599,48.148,48.148,48.148s48.148-21.599,48.148-48.148
			C165.171,129.339,132.788,87.418,126.296,79.247z M117.023,176.815c-13.487,0-24.46-10.972-24.46-24.459
			c0-7.944,11.481-27.898,24.462-46.052c12.98,18.143,24.457,38.091,24.457,46.052C141.483,165.843,130.51,176.815,117.023,176.815z
			"/>
	</g>
</g>
<g>
	<g>
		<path d="M328.735,139.642c-0.154-0.758-0.379-1.504-0.675-2.215c-0.296-0.711-0.663-1.409-1.09-2.049
			c-0.438-0.651-0.936-1.255-1.481-1.8c-2.748-2.748-6.834-4.015-10.683-3.233c-0.758,0.154-1.504,0.379-2.215,0.675
			c-0.723,0.296-1.409,0.663-2.049,1.09c-0.651,0.426-1.255,0.924-1.8,1.469c-0.545,0.545-1.042,1.149-1.469,1.8
			c-0.426,0.64-0.794,1.327-1.09,2.049c-0.296,0.711-0.521,1.457-0.675,2.215c-0.154,0.758-0.237,1.54-0.237,2.31
			c0,0.782,0.083,1.552,0.237,2.321c0.154,0.746,0.379,1.492,0.675,2.215c0.296,0.711,0.663,1.398,1.09,2.037
			c0.426,0.651,0.924,1.255,1.469,1.8c0.545,0.545,1.149,1.042,1.8,1.481c0.64,0.426,1.327,0.794,2.049,1.09
			c0.711,0.296,1.457,0.521,2.215,0.675c0.758,0.154,1.54,0.225,2.31,0.225c3.115,0,6.171-1.255,8.374-3.47
			c0.545-0.545,1.042-1.149,1.481-1.8c0.426-0.64,0.794-1.327,1.09-2.037c0.296-0.723,0.521-1.469,0.675-2.215
			c0.154-0.77,0.225-1.54,0.225-2.321C328.961,141.182,328.889,140.4,328.735,139.642z"/>
	</g>
</g>
<g>
</g>
<g>
</g>
<g>
</g>
<g>
</g>
<g>
</g>
<g>
</g>
<g>
</g>
<g>
</g>
<g>
</g>
<g>
</g>
<g>
</g>
<g>
</g>
<g>
</g>
<g>
</g>
<g>
</g>
</svg>