<?xml version="1.0" encoding="iso-8859-1"?>
<!-- Uploaded to: SVG Repo, www.svgrepo.com, Transformed by: SVG Repo Tools -->
<svg fill="#000000" height="800px" width="800px" version="1.1" id="Layer_1" xmlns="http://www.w3.org/2000/svg" xmlns:xlink="http://www.w3.org/1999/xlink" 
	 viewBox="0 0 508 508" xml:space="preserve">
<g>
	<g>
		<path d="M80.1,333.3h-9.5c-7.8,0-14.1,6.3-14.1,14.1s6.3,14.1,14.1,14.1h9.5c7.8,0,14.1-6.3,14.1-14.1
			C94.2,339.6,87.9,333.3,80.1,333.3z"/>
	</g>
</g>
<g>
	<g>
		<path d="M155.8,333.3h-9.5c-7.8,0-14.1,6.3-14.1,14.1s6.3,14.1,14.1,14.1h9.5c7.8,0,14.1-6.3,14.1-14.1
			C169.9,339.6,163.5,333.3,155.8,333.3z"/>
	</g>
</g>
<g>
	<g>
		<path d="M80.1,281.9h-9.5c-7.8,0-14.1,6.3-14.1,14.1c0,7.8,6.3,14.1,14.1,14.1h9.5c7.8,0,14.1-6.3,14.1-14.1
			S87.9,281.9,80.1,281.9z"/>
	</g>
</g>
<g>
	<g>
		<path d="M155.8,281.9h-9.5c-7.8,0-14.1,6.3-14.1,14.1c0,7.8,6.3,14.1,14.1,14.1h9.5c7.8,0,14.1-6.3,14.1-14.1
			S163.5,281.9,155.8,281.9z"/>
	</g>
</g>
<g>
	<g>
		<path d="M231.4,281.9h-9.5c-7.8,0-14.1,6.3-14.1,14.1c0,7.8,6.3,14.1,14.1,14.1h9.5c7.8,0,14.1-6.3,14.1-14.1
			S239.2,281.9,231.4,281.9z"/>
	</g>
</g>
<g>
	<g>
		<path d="M80.1,230.5h-9.5c-7.8,0-14.1,6.3-14.1,14.1c0,7.8,6.3,14.1,14.1,14.1h9.5c7.8,0,14.1-6.3,14.1-14.1
			C94.2,236.8,87.9,230.5,80.1,230.5z"/>
	</g>
</g>
<g>
	<g>
		<path d="M155.8,230.5h-9.5c-7.8,0-14.1,6.3-14.1,14.1c0,7.8,6.3,14.1,14.1,14.1h9.5c7.8,0,14.1-6.3,14.1-14.1
			C169.9,236.8,163.5,230.5,155.8,230.5z"/>
	</g>
</g>
<g>
	<g>
		<path d="M231.4,230.5h-9.5c-7.8,0-14.1,6.3-14.1,14.1c0,7.8,6.3,14.1,14.1,14.1h9.5c7.8,0,14.1-6.3,14.1-14.1
			C245.5,236.8,239.2,230.5,231.4,230.5z"/>
	</g>
</g>
<g>
	<g>
		<path d="M80.1,179.1h-9.5c-7.8,0-14.1,6.3-14.1,14.1s6.3,14.1,14.1,14.1h9.5c7.8,0,14.1-6.3,14.1-14.1
			C94.2,185.4,87.9,179.1,80.1,179.1z"/>
	</g>
</g>
<g>
	<g>
		<path d="M155.8,179.1h-9.5c-7.8,0-14.1,6.3-14.1,14.1s6.3,14.1,14.1,14.1h9.5c7.8,0,14.1-6.3,14.1-14.1
			C169.9,185.4,163.5,179.1,155.8,179.1z"/>
	</g>
</g>
<g>
	<g>
		<path d="M231.4,179.1h-9.5c-7.8,0-14.1,6.3-14.1,14.1s6.3,14.1,14.1,14.1h9.5c7.8,0,14.1-6.3,14.1-14.1
			C245.5,185.4,239.2,179.1,231.4,179.1z"/>
	</g>
</g>
<g>
	<g>
		<path d="M382.7,179.1h-9.5c-7.8,0-14.1,6.3-14.1,14.1c0,7.8,6.3,14.1,14.1,14.1h9.5c7.8,0,14.1-6.3,14.1-14.1
			C396.8,185.4,390.5,179.1,382.7,179.1z"/>
	</g>
</g>
<g>
	<g>
		<path d="M307.1,179.1h-9.5c-7.8,0-14.1,6.3-14.1,14.1c0,7.8,6.3,14.1,14.1,14.1h9.5c7.8,0,14.1-6.3,14.1-14.1
			C321.2,185.4,314.9,179.1,307.1,179.1z"/>
	</g>
</g>
<g>
	<g>
		<path d="M453.3,266.2V14.1C453.3,6.3,447,0,439.2,0H14.1C6.3,0,0,6.3,0,14.1v389.8c0,7.8,6.3,14.1,14.1,14.1h233.3
			c18.3,52.3,68,90,126.5,90c73.9,0,134.1-60.1,134.1-134.1C508,329.8,486.4,290.6,453.3,266.2z M28.2,28.2h396.9v90.2H28.2V28.2z
			 M240.9,389.8H28.2V146.6h396.9V250c-15.8-6.5-33.1-10.2-51.2-10.2c-73.9,0-134.1,60.1-134.1,134.1
			C239.9,379.3,240.3,384.6,240.9,389.8z M373.9,479.8c-58.4,0-105.8-47.5-105.8-105.8s47.5-105.8,105.8-105.8
			c58.4,0,105.8,47.5,105.8,105.8S432.3,479.8,373.9,479.8z"/>
	</g>
</g>
<g>
	<g>
		<path d="M373.9,293.7c-7.8,0-14.1,6.3-14.1,14.1v52h-20.7c-7.8,0-14.1,6.3-14.1,14.1c0,7.8,6.3,14.1,14.1,14.1H374
			c7.8,0,14.1-6.3,14.1-14.1v-66.1C388.1,300,381.7,293.7,373.9,293.7z"/>
	</g>
</g>
<g>
	<g>
		<path d="M108,59.2h-8.4c-7.8,0-14.1,6.3-14.1,14.1s6.3,14.1,14.1,14.1h8.4c7.8,0,14.1-6.3,14.1-14.1S115.8,59.2,108,59.2z"/>
	</g>
</g>
<g>
	<g>
		<path d="M353.7,59.2h-8.4c-7.8,0-14.1,6.3-14.1,14.1s6.3,14.1,14.1,14.1h8.4c7.8,0,14.1-6.3,14.1-14.1S361.5,59.2,353.7,59.2z"/>
	</g>
</g>
<g>
</g>
<g>
</g>
<g>
</g>
<g>
</g>
<g>
</g>
<g>
</g>
<g>
</g>
<g>
</g>
<g>
</g>
<g>
</g>
<g>
</g>
<g>
</g>
<g>
</g>
<g>
</g>
<g>
</g>
</svg>