<?xml version="1.0" ?><!DOCTYPE svg  PUBLIC '-//W3C//DTD SVG 1.1//EN'  'http://www.w3.org/Graphics/SVG/1.1/DTD/svg11.dtd'><!-- Uploaded to: SVG Repo, www.svgrepo.com, Transformed by: SVG Repo Tools -->
<svg width="800px" height="800px" viewBox="0 0 32 32" enable-background="new 0 0 32 32" id="_x3C_Layer_x3E_" version="1.1" xml:space="preserve" xmlns="http://www.w3.org/2000/svg" xmlns:xlink="http://www.w3.org/1999/xlink"><g id="car_x2C__vehicle_x2C__transport_1_"><g id="XMLID_1814_"><path d="    M27.2,12.499H30c0.276,0,0.5,0.223,0.5,0.5v1c0,0.276-0.212,0.57-0.475,0.658" fill="none" id="XMLID_1824_" stroke="#263238" stroke-linecap="round" stroke-linejoin="round" stroke-miterlimit="10"/><path d="    M6.5,26.999v2.5c0,0.552-0.447,1-1,1h-2c-0.553,0-1-0.448-1-1v-2.5" fill="none" id="XMLID_1823_" stroke="#263238" stroke-linecap="round" stroke-linejoin="round" stroke-miterlimit="10"/><path d="    M29.5,26.499v3c0,0.552-0.447,1-1,1h-2c-0.553,0-1-0.448-1-1v-3" fill="none" id="XMLID_1822_" stroke="#263238" stroke-linecap="round" stroke-linejoin="round" stroke-miterlimit="10"/><path d="    M4.8,12.499H2c-0.276,0-0.5,0.223-0.5,0.5v1c0,0.276,0.212,0.57,0.475,0.658" fill="none" id="XMLID_1821_" stroke="#263238" stroke-linecap="round" stroke-linejoin="round" stroke-miterlimit="10"/><path d="    M29.5,26.499h-27c-0.553,0-1-0.448-1-1v-1h29v1C30.5,26.051,30.053,26.499,29.5,26.499z" fill="none" id="XMLID_1820_" stroke="#263238" stroke-linecap="round" stroke-linejoin="round" stroke-miterlimit="10"/><path d="    M1.5,22.499v-3.5c0-2.938,3.583-3.5,14.5-3.5s14.5,0.563,14.5,3.5v3.188" fill="none" id="XMLID_1819_" stroke="#263238" stroke-linecap="round" stroke-linejoin="round" stroke-miterlimit="10"/><path d="    M30.5,19.499v3h-6v-2c0-0.553,0.447-1,1-1h3" fill="none" id="XMLID_1818_" stroke="#263238" stroke-linecap="round" stroke-linejoin="round" stroke-miterlimit="10"/><path d="    M3.5,19.499h3c0.553,0,1,0.447,1,1v2h-6v-3" fill="none" id="XMLID_1817_" stroke="#263238" stroke-linecap="round" stroke-linejoin="round" stroke-miterlimit="10"/><path d="    M9.5,22.499v-1c0-1.1,0.9-2,2-2h9c1.1,0,2,0.9,2,2v1" fill="none" id="XMLID_1816_" stroke="#263238" stroke-linecap="round" stroke-linejoin="round" stroke-miterlimit="10"/><path d="    M4.101,15.997l1.507-7.536c0.217-1.083,1.221-2.312,2.312-2.487C9.408,5.732,11.51,5.5,16,5.5s6.592,0.232,8.081,0.474    c1.091,0.176,2.095,1.404,2.312,2.487l1.509,7.547" fill="none" id="XMLID_1815_" stroke="#263238" stroke-linecap="round" stroke-linejoin="round" stroke-miterlimit="10"/></g></g></svg>