<?xml version="1.0" encoding="iso-8859-1"?>
<!-- Uploaded to: SVG Repo, www.svgrepo.com, Transformed by: SVG Repo Tools -->
<svg fill="#000000" height="800px" width="800px" version="1.1" id="Layer_1" xmlns="http://www.w3.org/2000/svg" xmlns:xlink="http://www.w3.org/1999/xlink" 
	 viewBox="0 0 512 512" xml:space="preserve">
<g transform="translate(1 1)">
	<g>
		<g>
			<path d="M485.4,171.043v-28.064c14.679-3.814,25.6-17.216,25.6-33.046C511,91.16,495.64,75.8,476.867,75.8
				c-18.773,0-34.133,15.36-34.133,34.133c0,15.83,10.921,29.232,25.6,33.046v28.064c-10.103,3.391-17.067,12.734-17.067,24.224
				v8.533H58.733v-8.533c0-11.491-6.963-20.833-17.067-24.224v-28.064c14.679-3.814,25.6-17.216,25.6-33.046
				c0-18.773-15.36-34.133-34.133-34.133C14.36,75.8-1,91.16-1,109.933c0,15.829,10.921,29.232,25.6,33.046v28.064
				c-10.103,3.391-17.067,12.734-17.067,24.224v307.2c0,5.12,3.413,8.533,8.533,8.533H50.2h409.6h34.133
				c5.12,0,8.533-3.413,8.533-8.533v-307.2C502.467,183.776,495.503,174.433,485.4,171.043z M459.8,109.933
				c0-9.387,7.68-17.067,17.067-17.067s17.067,7.68,17.067,17.067S486.253,127,476.867,127S459.8,119.32,459.8,109.933z
				 M451.267,459.8h-22.789c11.28-9.089,14.256-18.17,14.256-25.6c0-17.268-16.916-31.082-42.667-41.059V220.867h51.2V459.8z
				 M331.8,459.8v-65.346c19.977,2.39,37.179,6.087,51.2,10.485V459.8H331.8z M263.533,459.8v-67.943
				c5.64-0.212,11.334-0.324,17.067-0.324c12.01,0,23.401,0.448,34.133,1.262V459.8H263.533z M195.267,459.8v-11.646
				c5.424-9.012,8.533-19.615,8.533-31.021c0-0.927-0.028-1.855-0.069-2.783c-0.011-0.25-0.026-0.499-0.04-0.748
				c-0.044-0.776-0.102-1.552-0.174-2.328c-0.013-0.139-0.023-0.279-0.037-0.417c-0.388-3.881-1.131-7.763-2.24-11.644
				c14.065-3.014,29.318-5.134,45.227-6.373v66.96H195.267z M314.733,375.797c-11.306-0.881-22.773-1.33-34.133-1.33
				c-5.767,0-11.454,0.105-17.067,0.296V220.867h51.2V375.797z M331.8,220.867H383v166.572c-15.447-4.448-32.914-7.792-51.2-9.968
				V220.867z M246.467,375.646c-18.173,1.266-35.341,3.525-51.2,6.628V220.867h51.2V375.646z M178.2,367.956
				c-9.643-6.662-21.383-10.556-34.133-10.556c-5.946,0-11.668,0.858-17.067,2.435V220.867h51.2V367.956z M109.933,442.999
				c-5.372-7.135-8.533-16.068-8.533-25.866s3.161-18.732,8.533-25.866V442.999z M127,456.351v-78.435
				c5.205-2.22,10.967-3.449,17.067-3.449c14.095,0,26.405,6.537,34.133,16.801v50.713c-5.21,6.942-12.551,12.333-21.333,15.26
				c-1.037,0.259-1.993,0.757-2.825,1.417c-3.193,0.74-6.528,1.143-9.975,1.143C137.967,459.8,132.205,458.57,127,456.351z
				 M400.067,457.038v-45.747c16.598,7.369,25.6,15.692,25.6,22.909C425.667,441.735,416.347,449.935,400.067,457.038z
				 M109.933,220.867v147.089c-15.526,10.727-25.6,28.648-25.6,49.177c0,16.809,6.755,31.87,17.722,42.667H58.733V220.867H109.933z
				 M16.067,109.933c0-9.387,7.68-17.067,17.067-17.067c9.387,0,17.067,7.68,17.067,17.067S42.52,127,33.133,127
				C23.747,127,16.067,119.32,16.067,109.933z M24.6,195.267c0-5.12,3.413-8.533,8.533-8.533c5.12,0,8.533,3.413,8.533,8.533v17.067
				v256v25.6H24.6V195.267z M58.733,476.867h107.52h228.693h56.32v17.067H58.733V476.867z M485.4,493.933h-17.067v-25.6v-256
				v-17.067c0-5.12,3.413-8.533,8.533-8.533s8.533,3.413,8.533,8.533V493.933z"/>
			<path d="M135.533,178.2c7.68,0,14.507-1.707,21.333-5.12c2.56-1.707,4.267-4.267,4.267-7.68s-1.707-5.973-4.267-7.68
				c-7.68-5.12-12.8-12.8-12.8-22.187s5.12-17.067,12.8-21.333c2.56-1.707,4.267-4.267,4.267-7.68c0-3.241-1.549-5.702-3.895-7.405
				l89.228-50.988v55.855c-2.855,1.175-5.492,2.91-7.68,5.098l-19.627,19.627c-8.533,8.533-8.533,23.04,0,31.573l19.627,19.627
				c4.267,4.267,10.24,6.827,16.213,6.827s11.947-2.56,16.213-6.827l19.627-19.627c8.533-8.533,8.533-23.04,0-31.573l-19.627-19.627
				c-2.188-2.188-4.825-3.922-7.68-5.098V47.64l107.453,57.308l-5.053,10.105l-18.773,2.56c-3.413,0.853-5.973,2.56-6.827,5.973
				c-0.853,2.56,0,5.973,2.56,8.533l13.653,13.653l-3.413,18.773c-0.853,3.413,0.853,6.827,3.413,8.533
				c3.413,1.707,6.827,2.56,9.387,0.853L383,164.547l17.067,9.387c1.707,0.853,2.56,0.853,4.267,0.853s3.413,0,3.413-1.707
				c2.56-1.707,4.267-5.12,3.413-8.533l-3.413-18.773L421.4,132.12c2.56-1.707,3.413-5.12,2.56-8.533
				c-0.853-3.413-3.413-5.12-6.827-5.973l-18.773-2.56l-6.512-13.023c0.251-3.248-1.487-6.453-4.582-8.31L263.533,27.729V7.533
				C263.533,2.413,260.12-1,255-1s-8.533,3.413-8.533,8.533v20.358L132.569,92.976c-22.462,1.481-39.702,19.663-39.702,42.557
				C92.867,159.427,111.64,178.2,135.533,178.2z M278.04,140.653c2.56,1.707,2.56,5.12,0,7.68l-19.627,19.627
				c-1.707,2.56-5.12,2.56-7.68,0l-19.627-19.627c-0.853-1.707-1.707-2.56-1.707-4.267c0-1.707,0.853-3.413,1.707-4.267
				l19.627-19.627c1.707-0.853,2.56-1.707,4.267-1.707s2.56,0.853,3.413,2.56L278.04,140.653z M399.213,132.12l-5.12,4.267
				c-1.707,1.707-3.413,5.12-2.56,7.68l1.707,6.827l-5.973-3.413c-1.707-0.853-2.56-0.853-4.267-0.853s-2.56,0.853-3.413,0.853
				l-5.973,3.413l0.853-6.827c0-2.56-0.853-5.973-2.56-7.68l-5.12-4.267l6.827-0.853c3.413,0,5.973-1.707,6.827-4.267l2.56-5.973
				l2.56,5.973c1.707,1.707,4.267,4.267,6.827,4.267L399.213,132.12z M135.533,109.933c-5.12,7.68-8.533,16.213-8.533,25.6
				s3.413,17.92,8.533,25.6c-14.507,0-25.6-11.093-25.6-25.6C109.933,121.027,121.027,109.933,135.533,109.933z"/>
		</g>
	</g>
</g>
<g>
</g>
<g>
</g>
<g>
</g>
<g>
</g>
<g>
</g>
<g>
</g>
<g>
</g>
<g>
</g>
<g>
</g>
<g>
</g>
<g>
</g>
<g>
</g>
<g>
</g>
<g>
</g>
<g>
</g>
</svg>