<?xml version="1.0" encoding="iso-8859-1"?>
<!-- Uploaded to: SVG Repo, www.svgrepo.com, Transformed by: SVG Repo Tools -->
<svg fill="#000000" height="800px" width="800px" version="1.1" id="Layer_1" xmlns="http://www.w3.org/2000/svg" xmlns:xlink="http://www.w3.org/1999/xlink" 
	 viewBox="0 0 512 512" xml:space="preserve">
<g>
	<g>
		<path d="M195.491,260.655h-27.927c-5.141,0-9.309,4.164-9.309,9.309c0,5.145,4.168,9.309,9.309,9.309h18.618v18.618
			c0,5.145,4.168,9.309,9.309,9.309s9.309-4.164,9.309-9.309v-27.927C204.8,264.818,200.632,260.655,195.491,260.655z"/>
	</g>
</g>
<g>
	<g>
		<path d="M418.909,493.382V9.309c0-5.145-4.168-9.309-9.309-9.309H102.4c-5.141,0-9.309,4.164-9.309,9.309v484.073H55.855V512
			H102.4h37.236h232.727H409.6h46.545v-18.618H418.909z M363.055,493.382H148.945V55.855h214.109V493.382z M400.291,493.382h-18.618
			V46.545c0-5.145-4.168-9.309-9.309-9.309H139.636c-5.141,0-9.309,4.164-9.309,9.309v446.836h-18.618V18.618h288.582V493.382z"/>
	</g>
</g>
<g>
</g>
<g>
</g>
<g>
</g>
<g>
</g>
<g>
</g>
<g>
</g>
<g>
</g>
<g>
</g>
<g>
</g>
<g>
</g>
<g>
</g>
<g>
</g>
<g>
</g>
<g>
</g>
<g>
</g>
</svg>