<?xml version="1.0" encoding="iso-8859-1"?>
<!-- Uploaded to: SVG Repo, www.svgrepo.com, Transformed by: SVG Repo Tools -->
<!DOCTYPE svg PUBLIC "-//W3C//DTD SVG 1.1//EN" "http://www.w3.org/Graphics/SVG/1.1/DTD/svg11.dtd">
<svg fill="#000000" height="800px" width="800px" version="1.1" id="Capa_1" xmlns="http://www.w3.org/2000/svg" xmlns:xlink="http://www.w3.org/1999/xlink" 
	 viewBox="0 0 428.107 428.107" xml:space="preserve">
<g>
	<g>
		<g>
			<path d="M224.047,295.355c0.967,0,1.924-0.033,2.885-0.054l-0.001-0.327h-2.335c-1.84,0.131-3.691,0.225-5.55,0.289
				C220.708,295.32,222.374,295.355,224.047,295.355z"/>
		</g>
		<path d="M214.05,352.24c-10.685,0-19.378,8.687-19.377,19.364c-0.001,10.686,8.692,19.38,19.374,19.38
			c10.679,0.001,19.368-8.692,19.369-19.378C233.417,360.928,224.728,352.24,214.05,352.24z M214.049,376.984
			c-2.965,0-5.378-2.412-5.378-5.379c0-2.959,2.414-5.365,5.379-5.365c2.959,0,5.366,2.406,5.366,5.365
			C219.417,374.572,217.008,376.984,214.049,376.984z"/>
		<path d="M326.918,377.877c-1.564-1.184-37.799-28.388-85.988-47.172l0.002-37.809c68.638-12.675,120.795-72.965,120.799-145.216
			C361.734,66.253,295.49,0.004,214.058,0C132.631-0.003,66.379,66.24,66.376,147.668c-0.002,72.252,52.151,132.545,120.787,145.225
			l-0.001,37.809c-48.196,18.781-84.428,45.983-85.992,47.166c-1.748,1.322-2.777,3.389-2.777,5.583l-0.002,37.647
			c0,3.865,3.135,7.001,7,7l217.303,0.009c3.865,0.001,7-3.133,7-6.999l0.002-37.649C329.696,381.267,328.668,379.2,326.918,377.877
			z M347.73,147.68c-0.002,70.309-54.563,128.109-123.563,133.295l-20.237-0.002c-69.002-5.189-123.555-62.996-123.552-133.304
			C80.381,73.961,140.35,13.997,214.058,14.001C287.768,14.004,347.734,73.973,347.73,147.68z M226.931,294.975l-0.001,32.822
			h-25.768l0.002-32.823h2.335c3.484,0.247,7.001,0.382,10.549,0.382c3.549-0.001,7.064-0.134,10.549-0.381H226.931z
			 M112.392,408.493l203.302,0.009l0.001,5.605L112.391,414.1L112.392,408.493z M315.696,387.025v7.477l-203.304-0.008l-0.001-7.48
			c9.623-6.854,43.172-29.643,84.215-44.929c0.218-0.083,0.42-0.189,0.624-0.289l33.631,0.001c0.206,0.1,0.406,0.207,0.626,0.289"/>
		<path d="M214.05,272.826c69.007,0.003,125.149-56.139,125.152-125.146c0.004-69.006-56.135-125.146-125.142-125.15
			c-69.009-0.003-125.154,56.135-125.156,125.14C88.902,216.678,145.042,272.822,214.05,272.826z M214.059,36.529
			c61.288,0.004,111.146,49.864,111.145,111.15c-0.003,61.289-49.865,111.148-111.153,111.146
			c-61.29-0.004-111.149-49.868-111.146-111.156C102.907,86.385,152.769,36.527,214.059,36.529z"/>
		<path d="M297.441,156.968c0.049,0.204,0.096,0.409,0.142,0.619C297.537,157.377,297.49,157.172,297.441,156.968z"/>
		<path d="M297.638,157.83c0.122,0.563,0.245,1.146,0.359,1.751C297.883,158.975,297.76,158.391,297.638,157.83z"/>
		<path d="M310.767,152.518c-1.439-5.959-7.556-17.226-20.413-17.227c-4.586,0-9.556,1.482-14.771,4.404
			c-8.216,4.6-15.997,6.932-23.133,6.933c-7.242-0.001-13.497-2.392-19.103-7.289c0.09-0.331,0.185-0.656,0.262-0.997
			c0.433-1.828,10.191-45.159-23.459-74.914c-8.684-7.673-17.604-11.564-26.512-11.565c-13.847,0-26.608,9.413-35.895,26.435
			c-0.585,1.041-5.59,10.453-1.441,19.969c2.873,6.592,9.099,11.09,18.507,13.369c12.004,2.907,26.387,9.609,30.036,25.012
			c-13.042,3.285-42.972,14.256-55.396,47.396c-4.898,13.056-4.577,24.362,0.95,33.608c6.128,10.254,18.664,17.138,35.219,19.376
			c0.315,0.046,1.471,0.196,3.154,0.196c4.04,0,11.615-0.906,16.964-6.984c4.419-5.021,6.076-12.105,4.927-21.056
			c-1.49-11.657-0.543-26.55,10.814-35.64c8.47,11.143,28.914,32.347,61.828,32.349c0.609-0.001,1.223-0.008,1.841-0.023
			c13.939-0.339,24.307-4.862,30.817-13.446C313.182,182.904,314.881,168.703,310.767,152.518z M186.78,210.962
			c0.421,3.29,0.494,7.701-1.555,10.028c-1.772,2.015-5.101,2.233-6.45,2.232c-0.721,0-1.183-0.057-1.2-0.06
			c-7.138-0.964-19.899-3.898-25.158-12.695c-3.234-5.407-3.184-12.645,0.141-21.509c9.753-26.011,33.047-35.313,44.24-38.363
			c0.775,4.589,3.331,8.567,6.936,11.21C189.986,172.068,183.993,189.186,186.78,210.962z M220.62,131.443
			c-2.029-0.824-4.244-1.288-6.566-1.288c-2.156-0.001-4.215,0.41-6.125,1.126c-4.716-16.44-18.549-28.1-39.821-33.253
			c-3.363-0.815-7.644-2.396-8.95-5.31c-1.439-3.215,0.807-7.59,0.838-7.643c3.15-5.777,11.765-19.213,23.645-19.213
			c5.393,0.001,11.193,2.711,17.236,8.054C223.355,93.793,221.993,121.462,220.62,131.443z M294.809,183.963
			c-3.806,5.02-10.535,7.68-20.003,7.91c-20.254,0.489-34.957-9.017-44.153-17.785c-4.218-4.019-7.278-7.883-9.185-10.558
			c3.935-1.851,7.083-5.107,8.763-9.135c6.688,4.134,14.132,6.233,22.222,6.231c9.558-0.001,19.638-2.932,29.972-8.717
			c3.059-1.714,5.801-2.618,7.93-2.618c4.945,0,6.644,5.903,6.824,6.592c0.09,0.344,0.177,0.714,0.263,1.084
			c0.049,0.204,0.096,0.409,0.142,0.619c0.018,0.08,0.037,0.164,0.056,0.243c0.122,0.561,0.245,1.145,0.359,1.751
			c0.003,0.008,0.005,0.016,0.007,0.024C299.391,166.841,300.027,177.085,294.809,183.963z"/>
	</g>
</g>
<g>
</g>
<g>
</g>
<g>
</g>
<g>
</g>
<g>
</g>
<g>
</g>
<g>
</g>
<g>
</g>
<g>
</g>
<g>
</g>
<g>
</g>
<g>
</g>
<g>
</g>
<g>
</g>
<g>
</g>
</svg>