<?xml version="1.0" encoding="UTF-8" standalone="no"?>
<!-- Uploaded to: SVG Repo, www.svgrepo.com, Generator: SVG Repo Mixer Tools -->
<svg width="800px" height="800px" viewBox="-14 0 66 66" version="1.1" xmlns="http://www.w3.org/2000/svg" xmlns:xlink="http://www.w3.org/1999/xlink" xmlns:sketch="http://www.bohemiancoding.com/sketch/ns">
    
    <title>Fire-extinguisher</title>
    <desc>Created with Sketch.</desc>
    <defs>
</defs>
    <g id="Page-1" stroke="none" stroke-width="1" fill="none" fill-rule="evenodd" sketch:type="MSPage">
        <g id="Fire-extinguisher" sketch:type="MSLayerGroup" transform="translate(1.000000, 2.000000)" stroke-width="2" stroke="#6B6C6E">
            <g id="Group" sketch:type="MSShapeGroup">
                <path d="M16,14.3 L16,9.1 L12.1,9.1 L12.1,14.3 C8.1,15.1 5.1,18.5 5.1,22.5 L5.1,58 C5.1,62.6 9,62 13.9,62 L14.4,62 C19.2,62 23.2,62.6 23.2,58 L23.2,22.5 C23.1,18.4 20.1,15.1 16,14.3 L16,14.3 Z" id="Shape">
</path>
                <path d="M19.1,9 C20,8.9 30,8.8 30,25" id="Shape">
</path>
                <path d="M35.1,49.1 C35.1,50.1 32.7,50 31,50 C29.3,50 26,50.1 26,49.1 C26,27 28.4,25 30.1,25 C31.8,25 35.1,28 35.1,49.1 L35.1,49.1 Z" id="Shape">
</path>
                <path d="M6,29 L22.2,29" id="Shape">
</path>
                <path d="M6,50.9 L22.2,50.9" id="Shape">
</path>
                <path d="M16.1,9.1 L1,9.1 L14.1,9.1 L0,3 L0,0 L16.1,6.1 L16.1,9.1 Z" id="Shape">
</path>
            </g>
            <path d="M18,7 L18,12" id="Shape" sketch:type="MSShapeGroup">
</path>
        </g>
    </g>
</svg>