<?xml version="1.0" encoding="iso-8859-1"?>
<!-- Uploaded to: SVG Repo, www.svgrepo.com, Generator: SVG Repo Mixer Tools -->
<svg fill="#000000" height="800px" width="800px" version="1.1" id="Layer_1" xmlns="http://www.w3.org/2000/svg" xmlns:xlink="http://www.w3.org/1999/xlink" 
	 viewBox="0 0 512 512" xml:space="preserve">
<g>
	<g>
		<g>
			<path d="M490.276,193.154h-36.685c-4.472,0-8.096,3.624-8.096,8.096v5.122h-8.552c0.055-1.575,0.108-3.15,0.123-4.729
				c0-0.038-0.004-0.076-0.004-0.113c0.007-0.211,0.025-0.42,0.025-0.631c0-36.5-91.081-55.596-181.054-55.596
				S74.979,164.399,74.979,200.899c0,0.214,0.018,0.424,0.025,0.637c0,0.036-0.004,0.071-0.004,0.108
				c0.014,1.579,0.051,3.156,0.106,4.729h-8.599v-5.122c0-4.472-3.625-8.096-8.096-8.096H21.724C5.707,193.154,0,203.299,0,212.794
				v3.354c0,9.492,5.707,19.635,21.724,19.635h36.685c4.471,0,8.096-3.624,8.096-8.096v-5.12h9.885
				c4.958,40.08,23.065,77.133,52.168,105.996c16.26,16.125,35.052,28.791,55.468,37.642l-45.563,96.757
				c-1.905,4.045-0.171,8.869,3.875,10.773c1.115,0.525,2.289,0.774,3.444,0.774c3.038,0,5.95-1.719,7.33-4.649l46.089-97.873
				c16.142,5.318,33.104,8.347,50.484,8.943v122.445c0,4.472,3.624,8.096,8.096,8.096c4.472,0,8.096-3.624,8.096-8.096V380.786
				c17.192-0.932,33.993-4.311,49.965-9.901l46.608,98.976c1.38,2.931,4.291,4.649,7.33,4.649c1.155,0,2.33-0.248,3.444-0.774
				c4.045-1.905,5.78-6.729,3.875-10.773l-46.2-98.11c23.749-10.788,45.166-26.708,62.586-47.012
				c2.911-3.394,2.521-8.505-0.873-11.417c-3.396-2.914-8.508-2.518-11.417,0.873c-29.238,34.08-70.831,54.611-115.317,57.262
				v-36.162c0-4.472-3.624-8.096-8.096-8.096c-4.472,0-8.096,3.624-8.096,8.096v36.329c-78.658-3.02-143.738-61.856-156.299-137.922
				c2.798,1.761,5.879,3.445,9.217,5.051c0.34,0.194,0.689,0.364,1.048,0.505c33.965,15.931,93.412,24.136,152.384,24.136
				c65.477,0,131.528-10.117,162.648-29.692c-3.461,21.088-10.973,41.351-22.237,59.614c-2.347,3.806-1.165,8.794,2.641,11.142
				c3.805,2.347,8.795,1.165,11.141-2.641c13.594-22.04,22.213-46.729,25.419-72.353h9.85v5.12c0,4.472,3.624,8.096,8.096,8.096
				h36.685c16.018,0,21.724-10.143,21.724-19.635v-3.354C512,203.299,506.294,193.154,490.276,193.154z M50.312,219.59h-0.001
				H21.724c-5.531,0-5.531-1.444-5.531-3.444v-3.354c0-2.001,0-3.446,5.531-3.446h28.588V219.59z M380.607,176.389
				c8.643,2.566,15.818,5.29,21.586,8.016l-9.351,9.07h-29.85L380.607,176.389z M362.201,171.683l-22.467,21.793h-29.85
				l27.196-26.38C345.887,168.408,354.291,169.941,362.201,171.683z M316.49,164.508l-29.863,28.967h-29.849l32.081-31.119
				C298.319,162.86,307.555,163.58,316.49,164.508z M256.032,161.496c3.474,0,6.929,0.031,10.366,0.087l-32.878,31.892h-29.85
				l32.649-31.669C242.814,161.602,249.392,161.496,256.032,161.496z M178.249,166.624c10.659-1.505,21.877-2.691,33.5-3.542
				l-31.335,30.394h-29.848L178.249,166.624z M135.876,175.121c4.425-1.216,9.06-2.352,13.874-3.414l-22.442,21.768H95.513
				C101.746,187.638,114.856,180.896,135.876,175.121z M105.133,214.984c-3.292-1.806-5.98-3.593-8.085-5.317h13.567
				L105.133,214.984z M135.876,226.678c-5.444-1.495-10.347-3.056-14.748-4.649l12.743-12.361h29.847l-19.695,19.104
				C141.24,228.1,138.519,227.405,135.876,226.678z M189.485,236.621c-9.153-1.064-17.956-2.353-26.322-3.855l23.814-23.099h29.851
				l-25.982,25.203C190.298,235.402,189.849,235.993,189.485,236.621z M238.597,240.063c-9.656-0.267-19.132-0.753-28.35-1.453
				l29.837-28.942h29.848L238.597,240.063z M261.634,240.277l31.556-30.608h29.85l-30.482,29.566
				C282.486,239.833,272.146,240.184,261.634,240.277z M356.07,229.142c-0.794,0.771-1.396,1.665-1.806,2.623
				c-11.298,2.202-23.473,4.002-36.284,5.37l28.318-27.468h29.85L356.07,229.142z M384.356,224.263l15.048-14.596h15.611
				C409.278,214.365,399.227,219.535,384.356,224.263z M416.099,193.475l0.219-0.213c0.078,0.071,0.158,0.143,0.233,0.213H416.099z
				 M495.808,216.147c0,1.999,0,3.443-5.531,3.443h-28.588v-10.242h28.588c5.531,0,5.531,1.445,5.531,3.446V216.147z"/>
			<path d="M159.673,121.064c-3.234,3.088-3.351,8.213-0.262,11.447c1.59,1.665,3.721,2.503,5.855,2.503
				c2.01,0,4.023-0.744,5.591-2.241c9.782-9.343,22.489-33.794,0.562-59.449c-7.265-8.501-9.693-16.738-7.213-24.481
				c1.931-6.03,6.175-9.872,6.341-10.02c3.368-2.9,3.771-7.977,0.892-11.371c-2.891-3.41-8.001-3.832-11.411-0.939
				c-1.188,1.007-11.632,10.274-12.855,25.507c-0.87,10.833,3.147,21.539,11.936,31.825
				C176.157,103.791,161.373,119.391,159.673,121.064z"/>
			<path d="M221.349,97.001c-3.234,3.088-3.352,8.214-0.262,11.447c1.591,1.666,3.721,2.503,5.855,2.503
				c2.01,0,4.023-0.744,5.591-2.241c9.782-9.344,22.489-33.795,0.562-59.451c-7.266-8.501-9.693-16.737-7.213-24.479
				c1.929-6.02,6.161-9.859,6.341-10.02c3.368-2.898,3.772-7.976,0.893-11.371c-2.892-3.411-8.001-3.831-11.411-0.939
				c-1.187,1.007-11.632,10.274-12.855,25.508c-0.87,10.831,3.147,21.538,11.936,31.823
				C237.833,79.727,223.049,95.328,221.349,97.001z"/>
			<path d="M283.025,97.001c-3.233,3.088-3.35,8.213-0.262,11.447c1.591,1.665,3.721,2.503,5.856,2.503
				c2.009,0,4.023-0.744,5.592-2.241c9.783-9.344,22.49-33.795,0.562-59.45c-7.265-8.501-9.693-16.737-7.213-24.48
				c1.931-6.03,6.175-9.871,6.342-10.021c3.366-2.898,3.77-7.976,0.892-11.37c-2.893-3.409-7.999-3.83-11.411-0.939
				c-1.187,1.007-11.63,10.274-12.855,25.508c-0.87,10.831,3.147,21.538,11.937,31.823C299.51,79.727,284.726,95.328,283.025,97.001
				z"/>
			<path d="M344.7,121.064c-3.233,3.088-3.351,8.213-0.262,11.447c1.591,1.665,3.721,2.503,5.856,2.503
				c2.009,0,4.023-0.744,5.592-2.241c9.781-9.343,22.489-33.794,0.562-59.45c-7.265-8.501-9.693-16.737-7.213-24.48
				c1.931-6.029,6.174-9.871,6.341-10.02c3.368-2.9,3.771-7.977,0.893-11.371c-2.893-3.41-7.998-3.83-11.411-0.939
				c-1.188,1.007-11.63,10.274-12.855,25.509c-0.87,10.832,3.146,21.538,11.937,31.822
				C361.185,103.791,346.402,119.391,344.7,121.064z"/>
		</g>
	</g>
</g>
</svg>