<?xml version="1.0" encoding="utf-8"?>

<!-- Uploaded to: SVG Repo, www.svgrepo.com, Transformed by: SVG Repo Tools -->
<svg version="1.1" id="Слой_1" xmlns="http://www.w3.org/2000/svg" xmlns:xlink="http://www.w3.org/1999/xlink" 
	 viewBox="0 0 64 64" enable-background="new 0 0 64 64" xml:space="preserve">
<rect id="bg" x="-332" y="-243" display="none" fill="#6DCFF6" width="544" height="455"/>
<g id="hair_dryer">
	<path d="M63.6,2.1C63.4,1.9,63,1.9,62.7,2l-6.9,2H14C6.1,4,0,10.1,0,17.9v1c0,7.6,5.7,13.6,13.3,14L23,59.2c1,2.9,3.7,4.8,6.7,4.8
		c0.8,0,1.5-0.1,2.3-0.4c1.8-0.6,3.2-1.9,3.8-3.7c0.6-1.6,0.6-3.5,0-5.4l-3.6-9.6c2-1.2,3.2-3.9,2.5-6c-0.4-1.2-1.4-2.2-2.9-2.7
		C31,36,30,35.9,29,36l-1.6-4.3l28.5-2.7l6.8,1.9c0.1,0,0.2,0,0.3,0c0.2,0,0.4-0.1,0.6-0.2c0.3-0.2,0.4-0.5,0.4-0.8v-27
		C64,2.6,63.9,2.3,63.6,2.1z M55,6v21l-41,3.9c-0.7,0-1.4-0.1-2-0.2V6.1C12.6,6,13.3,6,14,6H55z M2,18.9v-1c0-5.4,3.2-9.8,8-11.4
		v23.7C5.2,28.7,2,24.3,2,18.9z M33,39.6c0.4,1.1-0.3,2.6-1.3,3.4l-1.9-5.1C31.1,37.9,32.6,38.5,33,39.6z M34,55.2
		c0.8,2.5,0.2,5.6-2.6,6.5c-2.7,0.9-5.6-0.5-6.5-3.2l-9.5-25.8l10-1L34,55.2z M62,28.6l-5-1.4V5.7l5-1.4V28.6z"/>
	<path d="M26,12h19c0.6,0,1-0.4,1-1s-0.4-1-1-1H26c-0.6,0-1,0.4-1,1S25.4,12,26,12z"/>
	<path d="M48,12h2c0.6,0,1-0.4,1-1s-0.4-1-1-1h-2c-0.6,0-1,0.4-1,1S47.4,12,48,12z"/>
</g>
</svg>