<!-- Uploaded to: SVG Repo, www.svgrepo.com, Transformed by: SVG Repo Tools -->
<svg version="1.1" id="Uploaded to svgrepo.com" xmlns="http://www.w3.org/2000/svg" xmlns:xlink="http://www.w3.org/1999/xlink" 
	 width="800px" height="800px" viewBox="0 0 32 32" xml:space="preserve">
<style type="text/css">
	.stone_een{fill:#0B1719;}
</style>
<path class="stone_een" d="M19,22.257V3c0-1.657-1.343-3-3-3h-1c-1.657,0-3,1.343-3,3v19.257c-1.221,1.009-2,2.535-2,4.243
	c0,3.038,2.462,5.5,5.5,5.5s5.5-2.462,5.5-5.5C21,24.792,20.221,23.266,19,22.257z M13.5,4C13.776,4,14,4.224,14,4.5
	C14,4.776,13.776,5,13.5,5S13,4.776,13,4.5C13,4.224,13.224,4,13.5,4z M13.5,7C13.776,7,14,7.224,14,7.5C14,7.776,13.776,8,13.5,8
	S13,7.776,13,7.5C13,7.224,13.224,7,13.5,7z M13.5,10c0.276,0,0.5,0.224,0.5,0.5c0,0.276-0.224,0.5-0.5,0.5S13,10.776,13,10.5
	C13,10.224,13.224,10,13.5,10z M13.5,13c0.276,0,0.5,0.224,0.5,0.5c0,0.276-0.224,0.5-0.5,0.5S13,13.776,13,13.5
	C13,13.224,13.224,13,13.5,13z M13.5,16c0.276,0,0.5,0.224,0.5,0.5c0,0.276-0.224,0.5-0.5,0.5S13,16.776,13,16.5
	C13,16.224,13.224,16,13.5,16z M13.5,19c0.276,0,0.5,0.224,0.5,0.5c0,0.276-0.224,0.5-0.5,0.5S13,19.776,13,19.5
	C13,19.224,13.224,19,13.5,19z M13.5,23c-0.276,0-0.5-0.224-0.5-0.5c0-0.276,0.224-0.5,0.5-0.5s0.5,0.224,0.5,0.5
	C14,22.776,13.776,23,13.5,23z M15.5,28c-0.828,0-1.5-0.672-1.5-1.5c0-0.652,0.419-1.202,1-1.408V9.5C15,9.224,15.224,9,15.5,9
	S16,9.224,16,9.5v15.592c0.581,0.207,1,0.756,1,1.408C17,27.328,16.328,28,15.5,28z"/>
</svg>