<?xml version="1.0" ?><!-- Uploaded to: SVG Repo, www.svgrepo.com, Transformed by: SVG Repo Tools -->
<svg fill="#000000" width="800px" height="800px" viewBox="-5.5 0 147 147" xmlns="http://www.w3.org/2000/svg"><path d="     M 127.319360733032,44.571320950985     C 127.319360733032,44.571320950985 127.319360733032,145.058366775513 127.319360733032,145.058366775513     C 127.319360733032,145.058366775513 7.72069120407104,145.058366775513 7.72069120407104,145.058366775513     C 7.72069120407104,145.058366775513 7.72069120407104,44.571320950985 7.72069120407104,44.571320950985     C 7.72069120407104,44.571320950985 1.66385269165039,44.571320950985 1.66385269165039,44.571320950985     C 1.66385269165039,44.571320950985 16.0593528747559,1.36391848325729 16.0593528747559,1.36391848325729     C 16.0593528747559,1.36391848325729 116.827764987946,1.36391848325729 116.827764987946,1.36391848325729     C 116.827764987946,1.36391848325729 134.822164535522,44.571320950985 134.822164535522,44.571320950985     C 134.822164535522,44.571320950985 127.319360733032,44.571320950985 127.319360733032,44.571320950985     Z     M 75.7918963432312,110.398890674114     C 75.7918963432312,110.398890674114 75.7918963432312,99.1297075152397 75.7918963432312,99.1297075152397     C 75.7918963432312,95.7013229727745 72.8360886573792,92.8189702033997 68.8269815444946,91.9818599224091     C 68.8269815444946,91.9818599224091 68.8269815444946,110.398890674114 68.8269815444946,110.398890674114     C 68.8269815444946,110.398890674114 75.7918963432312,110.398890674114 75.7918963432312,110.398890674114     Z     M 64.8677926063538,110.398890674114     C 64.8677926063538,110.398890674114 64.8677926063538,91.8395056128502 64.8677926063538,91.8395056128502     C 60.437753200531,92.4257369041443 57.0610618591309,95.465514421463 57.0610618591309,99.1297075152397     C 57.0610618591309,99.1297075152397 57.0610618591309,110.398890674114 57.0610618591309,110.398890674114     C 57.0610618591309,110.398890674114 64.8677926063538,110.398890674114 64.8677926063538,110.398890674114     Z     M 122.980905532837,45.5582681894302     C 122.980905532837,45.5582681894302 12.0591950416565,45.5582681894302 12.0591950416565,45.5582681894302     C 12.0591950416565,45.5582681894302 12.0591950416565,140.771974861622 12.0591950416565,140.771974861622     C 12.0591950416565,140.771974861622 53.0466856956482,140.771974861622 53.0466856956482,140.771974861622     C 53.0466856956482,140.771974861622 53.0466856956482,96.9049778580666 53.0466856956482,96.9049778580666     C 53.0466856956482,91.0712374448776 59.0367612838745,86.3420637845993 66.4258589744568,86.3420637845993     C 73.8149566650391,86.3420637845993 79.8050322532654,91.0712374448776 79.8050322532654,96.9049778580666     C 79.8050322532654,96.9049778580666 79.8050322532654,140.771974861622 79.8050322532654,140.771974861622     C 79.8050322532654,140.771974861622 122.980905532837,140.771974861622 122.980905532837,140.771974861622     C 122.980905532837,140.771974861622 122.980905532837,45.5582681894302 122.980905532837,45.5582681894302     Z     M 114.970181465149,50.9347609877586     C 114.970181465149,50.9347609877586 114.970181465149,75.3614006638527 114.970181465149,75.3614006638527     C 114.970181465149,75.3614006638527 114.970181465149,86.1784093379974 114.970181465149,86.1784093379974     C 114.970181465149,86.1784093379974 91.2152910232544,86.1784093379974 91.2152910232544,86.1784093379974     C 91.2152910232544,86.1784093379974 91.2152910232544,75.3614006638527 91.2152910232544,75.3614006638527     C 91.2152910232544,75.3614006638527 91.2152910232544,72.5384359359741 91.2152910232544,72.5384359359741     C 91.2152910232544,72.5384359359741 91.2152910232544,50.9347609877586 91.2152910232544,50.9347609877586     C 91.2152910232544,50.9347609877586 114.970181465149,50.9347609877586 114.970181465149,50.9347609877586     Z     M 104.701823234558,83.2476208806038     C 104.701823234558,83.2476208806038 112.460937976837,83.2476208806038 112.460937976837,83.2476208806038     C 112.460937976837,83.2476208806038 112.460937976837,75.4847066402435 112.460937976837,75.4847066402435     C 112.460937976837,75.4847066402435 104.701823234558,75.4847066402435 104.701823234558,75.4847066402435     C 104.701823234558,75.4847066402435 104.701823234558,83.2476208806038 104.701823234558,83.2476208806038     Z     M 104.701823234558,72.5384359359741     C 104.701823234558,72.5384359359741 112.460937976837,72.5384359359741 112.460937976837,72.5384359359741     C 112.460937976837,72.5384359359741 112.460937976837,64.905004799366 112.460937976837,64.905004799366     C 112.460937976837,64.905004799366 104.701823234558,64.905004799366 104.701823234558,64.905004799366     C 104.701823234558,64.905004799366 104.701823234558,72.5384359359741 104.701823234558,72.5384359359741     Z     M 104.701823234558,61.6439459323883     C 104.701823234558,61.6439459323883 112.460937976837,61.6439459323883 112.460937976837,61.6439459323883     C 112.460937976837,61.6439459323883 112.460937976837,53.881031692028 112.460937976837,53.881031692028     C 112.460937976837,53.881031692028 104.701823234558,53.881031692028 104.701823234558,53.881031692028     C 104.701823234558,53.881031692028 104.701823234558,61.6439459323883 104.701823234558,61.6439459323883     Z     M 93.6830549240112,83.2476208806038     C 93.6830549240112,83.2476208806038 101.442250728607,83.2476208806038 101.442250728607,83.2476208806038     C 101.442250728607,83.2476208806038 101.442250728607,75.4847066402435 101.442250728607,75.4847066402435     C 101.442250728607,75.4847066402435 93.6830549240112,75.4847066402435 93.6830549240112,75.4847066402435     C 93.6830549240112,75.4847066402435 93.6830549240112,83.2476208806038 93.6830549240112,83.2476208806038     Z     M 93.6830549240112,72.5384359359741     C 93.6830549240112,72.5384359359741 101.442250728607,72.5384359359741 101.442250728607,72.5384359359741     C 101.442250728607,72.5384359359741 101.442250728607,64.905004799366 101.442250728607,64.905004799366     C 101.442250728607,64.905004799366 93.6830549240112,64.905004799366 93.6830549240112,64.905004799366     C 93.6830549240112,64.905004799366 93.6830549240112,72.5384359359741 93.6830549240112,72.5384359359741     Z     M 93.6830549240112,61.6439459323883     C 93.6830549240112,61.6439459323883 101.442250728607,61.6439459323883 101.442250728607,61.6439459323883     C 101.442250728607,61.6439459323883 101.442250728607,53.881031692028 101.442250728607,53.881031692028     C 101.442250728607,53.881031692028 93.6830549240112,53.881031692028 93.6830549240112,53.881031692028     C 93.6830549240112,53.881031692028 93.6830549240112,61.6439459323883 93.6830549240112,61.6439459323883     Z     M 114.970181465149,121.369206011295     C 114.970181465149,121.369206011295 114.970181465149,132.186267256737 114.970181465149,132.186267256737     C 114.970181465149,132.186267256737 91.2152910232544,132.186267256737 91.2152910232544,132.186267256737     C 91.2152910232544,132.186267256737 91.2152910232544,121.369206011295 91.2152910232544,121.369206011295     C 91.2152910232544,121.369206011295 91.2152910232544,118.546293854713 91.2152910232544,118.546293854713     C 91.2152910232544,118.546293854713 91.2152910232544,96.942618906498 91.2152910232544,96.942618906498     C 91.2152910232544,96.942618906498 114.970181465149,96.942618906498 114.970181465149,96.942618906498     C 114.970181465149,96.942618906498 114.970181465149,121.369206011295 114.970181465149,121.369206011295     Z     M 101.442250728607,99.8888282775879     C 101.442250728607,99.8888282775879 93.6830549240112,99.8888282775879 93.6830549240112,99.8888282775879     C 93.6830549240112,99.8888282775879 93.6830549240112,107.651751279831 93.6830549240112,107.651751279831     C 93.6830549240112,107.651751279831 101.442250728607,107.651751279831 101.442250728607,107.651751279831     C 101.442250728607,107.651751279831 101.442250728607,99.8888282775879 101.442250728607,99.8888282775879     Z     M 101.442250728607,110.912862718105     C 101.442250728607,110.912862718105 93.6830549240112,110.912862718105 93.6830549240112,110.912862718105     C 93.6830549240112,110.912862718105 93.6830549240112,118.546293854713 93.6830549240112,118.546293854713     C 93.6830549240112,118.546293854713 101.442250728607,118.546293854713 101.442250728607,118.546293854713     C 101.442250728607,118.546293854713 101.442250728607,110.912862718105 101.442250728607,110.912862718105     Z     M 101.442250728607,121.492503225803     C 101.442250728607,121.492503225803 93.6830549240112,121.492503225803 93.6830549240112,121.492503225803     C 93.6830549240112,121.492503225803 93.6830549240112,129.255426228046 93.6830549240112,129.255426228046     C 93.6830549240112,129.255426228046 101.442250728607,129.255426228046 101.442250728607,129.255426228046     C 101.442250728607,129.255426228046 101.442250728607,121.492503225803 101.442250728607,121.492503225803     Z     M 112.460937976837,99.8888282775879     C 112.460937976837,99.8888282775879 104.701823234558,99.8888282775879 104.701823234558,99.8888282775879     C 104.701823234558,99.8888282775879 104.701823234558,107.651751279831 104.701823234558,107.651751279831     C 104.701823234558,107.651751279831 112.460937976837,107.651751279831 112.460937976837,107.651751279831     C 112.460937976837,107.651751279831 112.460937976837,99.8888282775879 112.460937976837,99.8888282775879     Z     M 112.460937976837,110.912862718105     C 112.460937976837,110.912862718105 104.701823234558,110.912862718105 104.701823234558,110.912862718105     C 104.701823234558,110.912862718105 104.701823234558,118.546293854713 104.701823234558,118.546293854713     C 104.701823234558,118.546293854713 112.460937976837,118.546293854713 112.460937976837,118.546293854713     C 112.460937976837,118.546293854713 112.460937976837,110.912862718105 112.460937976837,110.912862718105     Z     M 112.460937976837,121.492503225803     C 112.460937976837,121.492503225803 104.701823234558,121.492503225803 104.701823234558,121.492503225803     C 104.701823234558,121.492503225803 104.701823234558,129.255426228046 104.701823234558,129.255426228046     C 104.701823234558,129.255426228046 112.460937976837,129.255426228046 112.460937976837,129.255426228046     C 112.460937976837,129.255426228046 112.460937976837,121.492503225803 112.460937976837,121.492503225803     Z     M 54.5608649253845,75.3614006638527     C 54.5608649253845,75.3614006638527 54.5608649253845,72.5384359359741 54.5608649253845,72.5384359359741     C 54.5608649253845,72.5384359359741 54.5608649253845,50.9347609877586 54.5608649253845,50.9347609877586     C 54.5608649253845,50.9347609877586 78.3157958984375,50.9347609877586 78.3157958984375,50.9347609877586     C 78.3157958984375,50.9347609877586 78.3157958984375,75.3614006638527 78.3157958984375,75.3614006638527     C 78.3157958984375,75.3614006638527 78.3157958984375,75.3765762448311 78.3157958984375,75.3765762448311     C 78.3157958984375,75.3765762448311 54.5608649253845,75.3765762448311 54.5608649253845,75.3765762448311     C 54.5608649253845,75.3765762448311 54.5608649253845,75.3614006638527 54.5608649253845,75.3614006638527     Z     M 68.0473079681396,72.5384359359741     C 68.0473079681396,72.5384359359741 75.8065118789673,72.5384359359741 75.8065118789673,72.5384359359741     C 75.8065118789673,72.5384359359741 75.8065118789673,64.905004799366 75.8065118789673,64.905004799366     C 75.8065118789673,64.905004799366 68.0473079681396,64.905004799366 68.0473079681396,64.905004799366     C 68.0473079681396,64.905004799366 68.0473079681396,72.5384359359741 68.0473079681396,72.5384359359741     Z     M 68.0473079681396,61.6439459323883     C 68.0473079681396,61.6439459323883 75.8065118789673,61.6439459323883 75.8065118789673,61.6439459323883     C 75.8065118789673,61.6439459323883 75.8065118789673,53.881031692028 75.8065118789673,53.881031692028     C 75.8065118789673,53.881031692028 68.0473079681396,53.881031692028 68.0473079681396,53.881031692028     C 68.0473079681396,53.881031692028 68.0473079681396,61.6439459323883 68.0473079681396,61.6439459323883     Z     M 57.0286693572998,72.5384359359741     C 57.0286693572998,72.5384359359741 64.7877435684204,72.5384359359741 64.7877435684204,72.5384359359741     C 64.7877435684204,72.5384359359741 64.7877435684204,64.905004799366 64.7877435684204,64.905004799366     C 64.7877435684204,64.905004799366 57.0286693572998,64.905004799366 57.0286693572998,64.905004799366     C 57.0286693572998,64.905004799366 57.0286693572998,72.5384359359741 57.0286693572998,72.5384359359741     Z     M 57.0286693572998,61.6439459323883     C 57.0286693572998,61.6439459323883 64.7877435684204,61.6439459323883 64.7877435684204,61.6439459323883     C 64.7877435684204,61.6439459323883 64.7877435684204,53.881031692028 64.7877435684204,53.881031692028     C 64.7877435684204,53.881031692028 57.0286693572998,53.881031692028 57.0286693572998,53.881031692028     C 57.0286693572998,53.881031692028 57.0286693572998,61.6439459323883 57.0286693572998,61.6439459323883     Z     M 19.2378306388855,121.369206011295     C 19.2378306388855,121.369206011295 19.2378306388855,118.546293854713 19.2378306388855,118.546293854713     C 19.2378306388855,118.546293854713 19.2378306388855,96.942618906498 19.2378306388855,96.942618906498     C 19.2378306388855,96.942618906498 42.9927697181702,96.942618906498 42.9927697181702,96.942618906498     C 42.9927697181702,96.942618906498 42.9927697181702,121.369206011295 42.9927697181702,121.369206011295     C 42.9927697181702,121.369206011295 42.9927697181702,132.186267256737 42.9927697181702,132.186267256737     C 42.9927697181702,132.186267256737 19.2378306388855,132.186267256737 19.2378306388855,132.186267256737     C 19.2378306388855,132.186267256737 19.2378306388855,121.369206011295 19.2378306388855,121.369206011295     Z     M 32.7242736816406,129.255426228046     C 32.7242736816406,129.255426228046 40.4835262298584,129.255426228046 40.4835262298584,129.255426228046     C 40.4835262298584,129.255426228046 40.4835262298584,121.492503225803 40.4835262298584,121.492503225803     C 40.4835262298584,121.492503225803 32.7242736816406,121.492503225803 32.7242736816406,121.492503225803     C 32.7242736816406,121.492503225803 32.7242736816406,129.255426228046 32.7242736816406,129.255426228046     Z     M 32.7242736816406,118.546293854713     C 32.7242736816406,118.546293854713 40.4835262298584,118.546293854713 40.4835262298584,118.546293854713     C 40.4835262298584,118.546293854713 40.4835262298584,110.912862718105 40.4835262298584,110.912862718105     C 40.4835262298584,110.912862718105 32.7242736816406,110.912862718105 32.7242736816406,110.912862718105     C 32.7242736816406,110.912862718105 32.7242736816406,118.546293854713 32.7242736816406,118.546293854713     Z     M 32.7242736816406,107.651751279831     C 32.7242736816406,107.651751279831 40.4835262298584,107.651751279831 40.4835262298584,107.651751279831     C 40.4835262298584,107.651751279831 40.4835262298584,99.8888282775879 40.4835262298584,99.8888282775879     C 40.4835262298584,99.8888282775879 32.7242736816406,99.8888282775879 32.7242736816406,99.8888282775879     C 32.7242736816406,99.8888282775879 32.7242736816406,107.651751279831 32.7242736816406,107.651751279831     Z     M 21.7056350708008,129.255426228046     C 21.7056350708008,129.255426228046 29.4647579193115,129.255426228046 29.4647579193115,129.255426228046     C 29.4647579193115,129.255426228046 29.4647579193115,121.492503225803 29.4647579193115,121.492503225803     C 29.4647579193115,121.492503225803 21.7056350708008,121.492503225803 21.7056350708008,121.492503225803     C 21.7056350708008,121.492503225803 21.7056350708008,129.255426228046 21.7056350708008,129.255426228046     Z     M 21.7056350708008,118.546293854713     C 21.7056350708008,118.546293854713 29.4647579193115,118.546293854713 29.4647579193115,118.546293854713     C 29.4647579193115,118.546293854713 29.4647579193115,110.912862718105 29.4647579193115,110.912862718105     C 29.4647579193115,110.912862718105 21.7056350708008,110.912862718105 21.7056350708008,110.912862718105     C 21.7056350708008,110.912862718105 21.7056350708008,118.546293854713 21.7056350708008,118.546293854713     Z     M 21.7056350708008,107.651751279831     C 21.7056350708008,107.651751279831 29.4647579193115,107.651751279831 29.4647579193115,107.651751279831     C 29.4647579193115,107.651751279831 29.4647579193115,99.8888282775879 29.4647579193115,99.8888282775879     C 29.4647579193115,99.8888282775879 21.7056350708008,99.8888282775879 21.7056350708008,99.8888282775879     C 21.7056350708008,99.8888282775879 21.7056350708008,107.651751279831 21.7056350708008,107.651751279831     Z     M 19.2378306388855,75.3614006638527     C 19.2378306388855,75.3614006638527 19.2378306388855,72.5384359359741 19.2378306388855,72.5384359359741     C 19.2378306388855,72.5384359359741 19.2378306388855,50.9347609877586 19.2378306388855,50.9347609877586     C 19.2378306388855,50.9347609877586 42.9927697181702,50.9347609877586 42.9927697181702,50.9347609877586     C 42.9927697181702,50.9347609877586 42.9927697181702,75.3614006638527 42.9927697181702,75.3614006638527     C 42.9927697181702,75.3614006638527 42.9927697181702,86.1784093379974 42.9927697181702,86.1784093379974     C 42.9927697181702,86.1784093379974 19.2378306388855,86.1784093379974 19.2378306388855,86.1784093379974     C 19.2378306388855,86.1784093379974 19.2378306388855,75.3614006638527 19.2378306388855,75.3614006638527     Z     M 32.7242736816406,83.2476208806038     C 32.7242736816406,83.2476208806038 40.4835262298584,83.2476208806038 40.4835262298584,83.2476208806038     C 40.4835262298584,83.2476208806038 40.4835262298584,75.4847066402435 40.4835262298584,75.4847066402435     C 40.4835262298584,75.4847066402435 32.7242736816406,75.4847066402435 32.7242736816406,75.4847066402435     C 32.7242736816406,75.4847066402435 32.7242736816406,83.2476208806038 32.7242736816406,83.2476208806038     Z     M 32.7242736816406,72.5384359359741     C 32.7242736816406,72.5384359359741 40.4835262298584,72.5384359359741 40.4835262298584,72.5384359359741     C 40.4835262298584,72.5384359359741 40.4835262298584,64.905004799366 40.4835262298584,64.905004799366     C 40.4835262298584,64.905004799366 32.7242736816406,64.905004799366 32.7242736816406,64.905004799366     C 32.7242736816406,64.905004799366 32.7242736816406,72.5384359359741 32.7242736816406,72.5384359359741     Z     M 32.7242736816406,61.6439459323883     C 32.7242736816406,61.6439459323883 40.4835262298584,61.6439459323883 40.4835262298584,61.6439459323883     C 40.4835262298584,61.6439459323883 40.4835262298584,53.881031692028 40.4835262298584,53.881031692028     C 40.4835262298584,53.881031692028 32.7242736816406,53.881031692028 32.7242736816406,53.881031692028     C 32.7242736816406,53.881031692028 32.7242736816406,61.6439459323883 32.7242736816406,61.6439459323883     Z     M 21.7056350708008,83.2476208806038     C 21.7056350708008,83.2476208806038 29.4647579193115,83.2476208806038 29.4647579193115,83.2476208806038     C 29.4647579193115,83.2476208806038 29.4647579193115,75.4847066402435 29.4647579193115,75.4847066402435     C 29.4647579193115,75.4847066402435 21.7056350708008,75.4847066402435 21.7056350708008,75.4847066402435     C 21.7056350708008,75.4847066402435 21.7056350708008,83.2476208806038 21.7056350708008,83.2476208806038     Z     M 21.7056350708008,72.5384359359741     C 21.7056350708008,72.5384359359741 29.4647579193115,72.5384359359741 29.4647579193115,72.5384359359741     C 29.4647579193115,72.5384359359741 29.4647579193115,64.905004799366 29.4647579193115,64.905004799366     C 29.4647579193115,64.905004799366 21.7056350708008,64.905004799366 21.7056350708008,64.905004799366     C 21.7056350708008,64.905004799366 21.7056350708008,72.5384359359741 21.7056350708008,72.5384359359741     Z     M 21.7056350708008,61.6439459323883     C 21.7056350708008,61.6439459323883 29.4647579193115,61.6439459323883 29.4647579193115,61.6439459323883     C 29.4647579193115,61.6439459323883 29.4647579193115,53.881031692028 29.4647579193115,53.881031692028     C 29.4647579193115,53.881031692028 21.7056350708008,53.881031692028 21.7056350708008,53.881031692028     C 21.7056350708008,53.881031692028 21.7056350708008,61.6439459323883 21.7056350708008,61.6439459323883     Z " fill-rule="nonzero" id="house-shape-PhotoshopSupply.com"/></svg>