<?xml version="1.0" encoding="iso-8859-1"?>
<!-- Uploaded to: SVG Repo, www.svgrepo.com, Transformed by: SVG Repo Tools -->
<svg fill="#000000" height="800px" width="800px" version="1.1" id="Layer_1" xmlns="http://www.w3.org/2000/svg" xmlns:xlink="http://www.w3.org/1999/xlink" 
	 viewBox="0 0 508 508" xml:space="preserve">
<g>
	<g>
		<path d="M315.255,137c-7.8,0-14.1,6.3-14.1,14.1v249.1c0,7.8,6.3,14.1,14.1,14.1s14.1-6.3,14.1-14.1V151.1
			C329.355,143.3,323.055,137,315.255,137z"/>
	</g>
</g>
<g>
	<g>
		<path d="M446.255,86h-72.8c-34.1-56.3-80.3-86-134-86c-55.2,0-100.6,29-135.1,86h-90.5c-14.5,1.1-14.8,15.1-13.1,19.4l51.6,126.2
			c-13.3,66.6-17.7,136.7-18.3,196.1h-3.5c-7.8,0-14.1,6.3-14.1,14.1v52.1c0,7.8,6.3,14.1,14.1,14.1h417.8c7.8,0,14.1-6.3,14.1-14.1
			v-52.1c0-7.8-6.3-14.1-14.1-14.1h-3.6c-1.3-129.4-21.1-239.1-56.2-313.5h57.7c18.5,0,33.5,14.9,33.5,33.2V360
			c0,7.8,6.3,14.1,14.1,14.1s14.1-6.3,14.1-14.1V147.4C508.055,113.5,480.355,86,446.255,86z M239.455,28.2
			c39.2,0,72.9,19.4,100.4,57.8h-201.8C165.555,47.6,199.655,28.2,239.455,28.2z M34.855,114.2h54.4c-10.2,21.8-18.7,45.5-25.6,70.3
			L34.855,114.2z M434.255,479.8h-389.6v-23.9h389.6V479.8z M416.755,427.5h-354.5c0.2-19.1,0.8-37.7,1.8-55.8h20.1
			c7.8,0,14.1-6.3,14.1-14.1c0-7.8-6.3-14.1-14.1-14.1h-18.2c0.8-9.6,1.6-19,2.6-28.2h43.8c7.8,0,14.1-6.3,14.1-14.1
			c0-7.8-6.3-14.1-14.1-14.1h-40.4c9.6-70.5,26.1-129.6,48.9-172.8h236.4C394.355,184.5,415.355,294.9,416.755,427.5z"/>
	</g>
</g>
<g>
</g>
<g>
</g>
<g>
</g>
<g>
</g>
<g>
</g>
<g>
</g>
<g>
</g>
<g>
</g>
<g>
</g>
<g>
</g>
<g>
</g>
<g>
</g>
<g>
</g>
<g>
</g>
<g>
</g>
</svg>