<?xml version="1.0" encoding="utf-8"?>

<!DOCTYPE svg PUBLIC "-//W3C//DTD SVG 1.1//EN" "http://www.w3.org/Graphics/SVG/1.1/DTD/svg11.dtd">
<!-- Uploaded to: SVG Repo, www.svgrepo.com, Transformed by: SVG Repo Tools -->
<svg version="1.1" id="Layer_1" xmlns:sketch="http://www.bohemiancoding.com/sketch/ns"
	 xmlns="http://www.w3.org/2000/svg" xmlns:xlink="http://www.w3.org/1999/xlink"  width="800px" height="800px"
	 viewBox="0 0 64 65" enable-background="new 0 0 64 65" xml:space="preserve">
<title>Key</title>
<desc>Created with Sketch.</desc>
<g id="Page-1" sketch:type="MSPage">
	<g id="Key" transform="translate(1.000000, 2.000000)" sketch:type="MSLayerGroup">
		<path id="Shape_1_" sketch:type="MSShapeGroup" fill="none" stroke="#6B6C6E" stroke-width="2" d="M35.4,40.1c-1-1-2-1.6-3.7-0.6
			l-4.1-4.1c-2.4,2.4-6.2,1.4-8.6-0.8c-4.7,1-9.2-1.4-12.6-4.7c-5.6-5.6-11-12.6,0-23.6s17.9-5.6,23.6,0c3.3,3.3,5.7,7.8,4.7,12.6
			c2.2,2.4,3.1,6.3,0.8,8.6l25.1,25.1c0.9,0.9,0.9,2.2,0.1,3l-5,5c-0.8,0.8-2.1,0.7-3-0.1l-1-1c1-1.8,0.4-2.8-0.6-3.7
			c-1-1-2-1.6-3.7-0.6l-2.8-2.8c1-1.7,1.2-3.5,0.2-4.5s-2.8-0.8-4.5,0.2L36,43.8C37,42.1,36.4,41.1,35.4,40.1L35.4,40.1z"/>
		<path id="Shape" sketch:type="MSShapeGroup" fill="none" stroke="#6B6C6E" stroke-width="2" d="M33.1,29.9l21.2,21.2"/>
		
			<ellipse id="Oval" sketch:type="MSShapeGroup" transform="matrix(0.7072 -0.707 0.707 0.7072 -4.8567 12.1753)" fill="none" stroke="#6B6C6E" stroke-width="2" cx="12.271" cy="11.951" rx="6.7" ry="2.2">
		</ellipse>
		<path id="Shape_2_" sketch:type="MSShapeGroup" fill="none" stroke="#6B6C6E" stroke-width="2" d="M30.9,21.2
			c0,5.3-4.3,9.7-9.7,9.7"/>
	</g>
</g>
</svg>