<?xml version="1.0" encoding="iso-8859-1"?>
<!-- Uploaded to: SVG Repo, www.svgrepo.com, Transformed by: SVG Repo Tools -->
<svg fill="#000000" height="800px" width="800px" version="1.1" id="Layer_1" xmlns="http://www.w3.org/2000/svg" xmlns:xlink="http://www.w3.org/1999/xlink" 
	 viewBox="0 0 512 512" xml:space="preserve">
<g>
	<g>
		<path d="M89.531,0h-0.125C51.284,0,20.255,41.902,20.255,80.024v63.312c0,32.182,22.096,59.219,51.893,66.864
			c-0.119,0.81-0.131,1.633-0.131,2.477v282.444c0,9.322,7.557,16.879,16.879,16.879s16.879-7.557,16.879-16.879V212.677
			c0-0.762,0.039-1.507-0.059-2.243c30.309-7.286,52.946-34.553,52.946-67.098V80.024C158.664,41.902,127.652,0,89.531,0z"/>
	</g>
</g>
<g>
	<g>
		<path d="M334.207,1.041c-9.322,0-16.879,7.557-16.879,16.879v145.859c0,11.314-8.761,20.766-20.074,20.766h-3.557V17.92
			c0-9.322-7.557-16.879-16.879-16.879c-9.322,0-16.879,7.557-16.879,16.879v166.625h-4.413c-11.312,0-20.343-9.452-20.343-20.766
			V17.92c0-9.322-7.557-16.879-16.879-16.879s-16.879,7.557-16.879,16.879v145.859c0,29.928,24.174,54.524,54.101,54.524h4.413
			v276.086c0,9.322,7.557,16.879,16.879,16.879c9.322,0,16.879-7.557,16.879-16.879V218.303h3.557
			c29.927,0,53.832-24.596,53.832-54.524V17.92C351.086,8.598,343.528,1.041,334.207,1.041z"/>
	</g>
</g>
<g>
	<g>
		<path d="M451.408,13.351c-9.138-8.046-21.717-9.929-32.813-4.915c-11.096,5.014-17.998,15.693-17.998,27.87v458.084
			c0,9.322,7.557,16.879,16.879,16.879s16.879-7.557,16.879-16.879V324.047l49.729-32.616c4.753-3.12,7.66-8.424,7.66-14.111
			V102.448C491.745,68.355,476.997,35.88,451.408,13.351z"/>
	</g>
</g>
<g>
</g>
<g>
</g>
<g>
</g>
<g>
</g>
<g>
</g>
<g>
</g>
<g>
</g>
<g>
</g>
<g>
</g>
<g>
</g>
<g>
</g>
<g>
</g>
<g>
</g>
<g>
</g>
<g>
</g>
</svg>