<?xml version="1.0" encoding="iso-8859-1"?>

<!DOCTYPE svg PUBLIC "-//W3C//DTD SVG 1.1//EN" "http://www.w3.org/Graphics/SVG/1.1/DTD/svg11.dtd">
<!-- Uploaded to: SVG Repo, www.svgrepo.com, Generator: SVG Repo Mixer Tools -->
<svg version="1.1" id="_x36_" xmlns="http://www.w3.org/2000/svg" xmlns:xlink="http://www.w3.org/1999/xlink" 
	 viewBox="0 0 512 512"  xml:space="preserve">
<g>
	<line style="fill:none;" x1="144.295" y1="508.084" x2="148.211" y2="512"/>
	<g>
		<g>
			<g>
				<path style="fill:#E7E7E0;" d="M166.29,39.884v-0.059c-0.235-2.173-0.646-4.229-1.351-6.285c-0.235-0.705-0.47-1.41-0.764-2.056
					c-0.294-0.705-0.588-1.351-0.94-1.997c-0.294-0.587-0.587-1.175-0.94-1.703c-0.294-0.529-0.646-1.058-0.998-1.527
					c-0.47-0.705-1.057-1.41-1.645-2.115c-0.587-0.763-1.234-1.469-1.939-2.115c-1.879-1.821-3.994-3.348-6.343-4.581
					c-0.059-0.059-0.118-0.059-0.176-0.118c-0.94-0.47-1.938-0.94-2.937-1.292c-0.881-0.352-1.762-0.646-2.702-0.881
					c-0.235-0.118-0.47-0.176-0.764-0.235c-0.999-0.235-1.997-0.411-2.996-0.529c0,0-0.059,0-0.118,0
					c-0.176-0.059-0.411-0.059-0.646-0.059h-0.294c-0.823-0.117-1.645-0.176-2.467-0.176H28.077c-4.699,0-9.105,1.174-12.981,3.231
					C8.693,20.794,3.701,26.609,1.41,33.54C0.529,36.301,0,39.179,0,42.233v130.518c0.059,42.586,58.739,40.53,66.845,67.902
					c3.524,11.924,3.583,34.304,3.172,52.513c-0.059,5.345-0.176,10.338-0.235,14.626c-0.059,2.173-0.118,4.288-0.059,6.05
					c-0.059,0.47-0.059,0.941-0.059,1.41c0,7.166-0.117,13.686-0.411,19.56c-2.408,50.927-13.862,59.15-13.451,98.094
					c0.235,21.734,4.64,36.066,10.162,44.936c0.999,1.644,2.056,3.054,3.113,4.347c1.41,1.703,2.819,3.054,4.288,4.17
					c1.116,0.881,2.173,1.527,3.231,2.115c2.35,1.174,4.523,1.703,6.462,1.703c0.059,0,0.059,0,0.117-0.059
					c0.999,0,2.056-0.176,3.172-0.47c1.116-0.234,2.232-0.705,3.407-1.41c0.235-0.117,0.47-0.293,0.705-0.411
					c0.764-0.353,1.468-0.881,2.232-1.469c1.41-1.058,2.819-2.408,4.229-4.111h0.059c0-0.059,0.059-0.059,0.059-0.059
					c6.872-8.224,12.922-23.554,13.157-49.341c0.47-38.884-10.984-47.108-13.334-98.094c-0.294-4.641-0.411-9.691-0.411-15.154
					c-0.059-1.41-0.059-2.878-0.059-4.347c0-0.47,0-0.94,0.059-1.41c-0.059-1.762-0.117-3.817-0.176-6.05l0.059-0.059
					c-0.059-0.234-0.059-0.528-0.059-0.764s0-0.529-0.059-0.823c0-1.174-0.059-2.409-0.118-3.701
					c-0.235-11.454-0.587-26.256,0.059-39.296c0.059-1.233,0.176-2.526,0.235-3.701c0.176-2.585,0.411-5.052,0.705-7.401
					c0.47-4.347,1.174-8.224,2.115-11.396c6.109-20.676,41.058-24.552,57.799-43.525c1.762-1.998,3.348-4.17,4.641-6.579
					c0.705-1.233,1.292-2.525,1.821-3.817c0.705-1.762,1.292-3.642,1.645-5.698c0.176-0.353,0.235-0.706,0.235-1.116
					c0.176-0.94,0.294-1.938,0.411-2.937c0.176-0.881,0.353-1.82,0.47-2.76c0.059-0.94,0.118-1.879,0.118-2.82V42.174
					C166.348,41.411,166.29,40.647,166.29,39.884z M31.425,164.763c-3.994,0-7.166-3.877-6.99-8.459l1.997-73.776
					c0.059-2.232,2.291-4.053,4.993-4.053c2.702,0,4.934,1.821,4.993,4.053l2.056,73.776
					C38.591,160.886,35.42,164.763,31.425,164.763z M65.905,191.782c-3.994,0-7.107-5.639-6.99-12.335l2.056-108.08
					c0.059-3.289,2.291-5.933,4.934-5.933c2.702,0,4.934,2.643,4.993,5.933l2.056,108.08
					C73.071,186.143,69.958,191.782,65.905,191.782z M100.443,191.782c-3.994,0-7.166-5.639-7.048-12.335l2.056-108.08
					c0.059-3.289,2.291-5.933,4.993-5.933c2.702,0,4.934,2.643,4.993,5.933l1.997,108.08
					C107.61,186.143,104.438,191.782,100.443,191.782z M134.923,164.763c-3.994,0-7.166-3.877-6.99-8.459l1.997-73.776
					c0.059-2.232,2.291-4.053,4.993-4.053c2.702,0,4.934,1.821,4.993,4.053l2.056,73.776
					C142.089,160.886,138.917,164.763,134.923,164.763z"/>
				<g>
					<path style="fill:#8A7967;" d="M112.661,307.792v154.6c0,0.706-0.059,1.41-0.118,2.056c-0.47,4.64-2.467,8.752-5.521,11.924
						c-0.411,0.411-0.763,0.822-1.233,1.174c-0.411,0.411-0.822,0.763-1.234,1.057c-0.117,0.059-0.176,0.117-0.294,0.176
						c-0.529,0.412-1.057,0.764-1.645,1.116c-0.235,0.176-0.529,0.294-0.763,0.47c-0.352,0.235-0.705,0.353-1.116,0.529
						c-0.235,0.117-0.411,0.176-0.646,0.294c-0.47,0.176-0.94,0.411-1.468,0.529c-0.058,0.059-0.176,0.059-0.294,0.118
						c-0.118,0.059-0.235,0.059-0.352,0.118c-0.294,0.059-0.705,0.176-0.998,0.294H96.86c-1.527,0.411-3.055,0.587-4.64,0.587
						H74.187c-1.234,0-2.409-0.118-3.583-0.352c-0.529-0.059-1.057-0.176-1.527-0.293c-7.695-1.998-13.627-8.4-15.037-16.271
						c-0.176-1.175-0.294-2.35-0.294-3.525v-154.6H112.661z"/>
					<polygon style="fill:#DEC986;" points="112.661,313.841 112.661,334.811 111.663,334.811 96.86,334.753 83.174,334.753 
						69.253,334.811 53.746,334.811 53.746,313.841 					"/>
					<circle style="fill:#FFFFFF;" cx="83.182" cy="454.187" r="12.474"/>
				</g>
				<path style="fill:#EDE6BC;" d="M166.348,42.174v5.11H0v-5.051c0-3.054,0.529-5.933,1.41-8.693
					c2.291-6.931,7.284-12.746,13.686-16.153c3.877-2.056,8.282-3.231,12.981-3.231h110.194c0.822,0,1.645,0.059,2.467,0.176h0.294
					c0.235,0,0.47,0,0.646,0.059c0.059,0,0.118,0,0.118,0c0.999,0.118,1.997,0.294,2.996,0.529c0.294,0.058,0.528,0.117,0.764,0.235
					c0.94,0.235,1.821,0.529,2.702,0.881c0.998,0.352,1.997,0.822,2.937,1.292c0.059,0.059,0.118,0.059,0.176,0.118
					c2.349,1.233,4.464,2.761,6.343,4.581c0.705,0.646,1.351,1.351,1.939,2.115c0.588,0.705,1.175,1.41,1.645,2.115
					c0.352,0.47,0.705,0.999,0.998,1.527c0.352,0.528,0.646,1.116,0.94,1.703c0.352,0.646,0.646,1.292,0.94,1.997
					c0.294,0.646,0.529,1.351,0.764,2.056c0.705,2.056,1.116,4.112,1.351,6.285v0.059C166.29,40.647,166.348,41.411,166.348,42.174z
					"/>
			</g>
			<path style="opacity:0.08;fill:#040000;" d="M166.348,42.174V171.4c0,0.941-0.059,1.88-0.118,2.82
				c-0.117,0.94-0.235,1.82-0.411,2.702c-0.117,1.058-0.235,2.056-0.47,2.996c0,0.411-0.059,0.764-0.235,1.116
				c-0.352,2.056-0.94,3.935-1.645,5.698c-0.529,1.292-1.116,2.584-1.821,3.817c-1.292,2.409-2.82,4.582-4.641,6.579
				c-16.74,18.973-51.69,22.849-57.799,43.525c-0.94,3.172-1.645,7.049-2.115,11.396c-0.294,2.35-0.529,4.816-0.705,7.401
				c-0.058,1.174-0.176,2.467-0.235,3.701c-0.646,13.04-0.294,27.842-0.059,39.296c0.059,1.292,0.118,2.526,0.118,3.701
				c0.059,0.294,0.059,0.587,0.059,0.823v0.764h16.388v154.659c0,0.706-0.059,1.41-0.118,2.056c-0.47,4.64-2.467,8.752-5.521,11.924
				c-0.411,0.411-0.763,0.822-1.233,1.174c-0.47,0.47-0.998,0.822-1.527,1.233c-0.529,0.412-1.057,0.764-1.645,1.116
				c-0.587,0.353-1.233,0.706-1.879,0.999c-0.235,0.117-0.411,0.176-0.646,0.294c-0.47,0.176-0.94,0.411-1.468,0.529
				c-0.058,0.059-0.176,0.059-0.294,0.118c-0.118,0.059-0.235,0.059-0.352,0.118c-0.294,0.059-0.646,0.176-0.94,0.235
				c0,0-0.059,0-0.059,0.059H96.86c-2.115,2.467-4.288,4.288-6.402,5.58c-0.235,0.117-0.47,0.294-0.705,0.411
				c-1.175,0.646-2.291,1.116-3.407,1.41c-1.116,0.294-2.173,0.47-3.172,0.47V14.156h55.097c0.822,0,1.645,0.059,2.408,0.117
				c0.117,0,0.235,0,0.352,0.059c0.235,0,0.47,0,0.646,0.059c0.059,0,0.118,0,0.118,0c0.999,0.118,1.997,0.294,2.996,0.529
				c0.294,0.058,0.528,0.117,0.764,0.235c0.94,0.235,1.821,0.529,2.702,0.881c0.998,0.352,1.997,0.822,2.937,1.292
				c0.059,0.059,0.118,0.059,0.176,0.118c2.349,1.233,4.464,2.761,6.343,4.581c0.705,0.646,1.351,1.351,1.939,2.115
				c0.588,0.705,1.175,1.41,1.645,2.115c0.352,0.47,0.705,0.999,0.998,1.527c0.352,0.528,0.646,1.116,0.94,1.703
				c0.352,0.646,0.646,1.292,0.94,1.997c0.294,0.646,0.529,1.351,0.764,2.056c0.705,2.056,1.116,4.112,1.351,6.285v0.059
				C166.29,40.647,166.348,41.411,166.348,42.174z"/>
		</g>
		<g>
			<g>
				<path style="fill:#E7E7E0;" d="M346.324,76.008c0,0-10.044,95.157-10.456,96.977c-3.759,38.768-50.515,37.769-58.386,64.495
					c-0.176,0.588-0.352,1.175-0.47,1.88c-0.176,0.588-0.294,1.116-0.411,1.762c-0.176,0.646-0.235,1.292-0.352,1.997
					c-0.176,0.705-0.294,1.41-0.411,2.173c-1.997,12.922-1.88,31.367-1.645,46.697c0,1.469,0.059,2.878,0.118,4.288
					c0.059,2.644,0.117,5.229,0.176,7.578c0,0.529,0.059,1.058,0.118,1.586l-0.059,0.059c0.059,2.232,0.118,4.288,0.118,6.109v1.41
					c0,7.284,0.118,13.862,0.411,19.795c2.408,51.572,14.038,59.913,13.569,99.328c-0.235,26.138-6.403,41.646-13.393,49.987
					c-0.059,0-0.059,0.059-0.059,0.059c-1.41,1.703-2.878,3.054-4.288,4.111c-0.764,0.587-1.527,1.116-2.291,1.527
					c0,0,0,0-0.059,0.059c-0.822,0.529-1.703,0.939-2.526,1.292c-0.646,0.235-1.292,0.47-1.938,0.587
					c-0.94,0.235-1.88,0.352-2.82,0.352c0,0.059-0.059,0.059-0.176,0.059c-2.82,0-6.285-1.174-9.751-3.876
					c-1.527-1.116-2.937-2.467-4.347-4.229c-4.053-4.758-7.812-11.983-10.338-22.262c-1.821-7.519-2.937-16.565-3.113-27.607
					c-0.411-39.473,11.219-47.814,13.628-99.328v-0.059c0.294-5.991,0.411-12.511,0.411-19.795c0-0.47,0-0.94,0.059-1.41
					c-0.059-1.821,0-3.936,0.059-6.109c0.353-19.09,1.645-52.336-2.996-68.02c-8.164-27.725-58.562-25.609-58.621-68.783
					l-9.868-92.69C176.216,34.186,219.448,0,261.27,0c12.747,0,25.61,3.172,37.358,8.811c18.855,8.928,34.773,24.2,42.527,42.527
					C344.503,59.091,346.324,67.374,346.324,76.008z"/>
				<g>
					<path style="fill:#FCF9F8;" d="M197.405,81.428c-1.577,0-3.176-0.331-4.703-1.031c-5.669-2.601-8.157-9.305-5.557-14.975
						c14.793-32.239,38.561-51.115,66.931-53.148c6.234-0.431,11.627,4.236,12.073,10.458s-4.238,11.627-10.458,12.073
						c-26.671,1.911-41.53,25.904-48.014,40.036C205.777,78.985,201.682,81.428,197.405,81.428z"/>
				</g>
				<path style="fill:#8A7967;" d="M291.11,305.501V462.04c0,5.698-2.35,10.867-6.109,14.626c-0.646,0.646-1.351,1.233-2.115,1.762
					c-0.646,0.529-1.233,0.999-1.938,1.351c-0.235,0.176-0.529,0.294-0.764,0.412c-0.705,0.412-1.469,0.764-2.291,1.116
					c-0.881,0.294-1.762,0.588-2.643,0.823c-0.059,0-0.059,0.059-0.059,0.059c-0.059,0-0.059,0-0.059,0
					c-1.586,0.352-3.113,0.528-4.758,0.528h-18.209c-1.762,0-3.524-0.234-5.169-0.645c-8.928-2.292-15.566-10.456-15.566-20.03
					V305.501H291.11z"/>
				<rect x="231.431" y="311.61" style="fill:#DEC986;" width="59.678" height="21.205"/>
				<circle style="fill:#FFFFFF;" cx="261.269" cy="453.725" r="12.633"/>
			</g>
			<path style="opacity:0.07;fill:#040000;" d="M346.324,76.008c0,0-10.044,95.157-10.456,96.977
				c-3.759,38.768-50.515,37.769-58.386,64.495c-0.176,0.588-0.352,1.175-0.47,1.88c-0.176,0.588-0.294,1.116-0.411,1.762
				c-0.176,0.646-0.235,1.292-0.352,1.997c-0.176,0.705-0.294,1.41-0.411,2.173c-1.997,12.922-1.88,31.367-1.645,46.697
				c0,1.469,0.059,2.878,0.118,4.288c0.059,2.644,0.117,5.229,0.176,7.578c0,0.529,0.059,1.058,0.118,1.586l-0.059,0.059h16.564
				V462.04c0,5.698-2.35,10.867-6.109,14.626c-0.646,0.646-1.351,1.233-2.115,1.762c-0.646,0.529-1.233,0.999-1.938,1.351
				c-0.235,0.176-0.529,0.294-0.764,0.412c-0.705,0.412-1.469,0.764-2.291,1.116c-0.881,0.294-1.762,0.588-2.643,0.823
				c-0.059,0-0.059,0.059-0.059,0.059c-1.41,1.703-2.878,3.054-4.288,4.111c-0.764,0.587-1.527,1.116-2.291,1.527
				c0,0,0,0-0.059,0.059c-0.822,0.529-1.703,0.939-2.526,1.292c-0.646,0.235-1.292,0.47-1.938,0.587
				c-0.94,0.235-1.88,0.352-2.82,0.352V0c12.747,0,25.61,3.172,37.358,8.811c18.855,8.928,34.773,24.2,42.527,42.527
				C344.503,59.091,346.324,67.374,346.324,76.008z"/>
		</g>
	</g>
</g>
</svg>