<?xml version="1.0" encoding="iso-8859-1"?>
<!-- Uploaded to: SVG Repo, www.svgrepo.com, Transformed by: SVG Repo Tools -->
<svg fill="#000000" height="800px" width="800px" version="1.1" id="Layer_1" xmlns="http://www.w3.org/2000/svg" xmlns:xlink="http://www.w3.org/1999/xlink" 
	 viewBox="0 0 512 512" xml:space="preserve">
<g>
	<g>
		<g>
			<path d="M315.645,126.612V83.256c0-14.672-11.935-26.61-26.603-26.61h-22.373V21.335h17.654c5.892,0,10.667-4.776,10.667-10.667
				C294.99,4.777,290.214,0,284.323,0H169.849c-5.892,0-10.667,4.777-10.667,10.667c0,5.892,4.776,10.667,10.667,10.667h75.487
				v35.311h-22.371c-14.672,0-26.61,11.938-26.61,26.61v43.358c-45.682,5.305-81.268,44.213-81.268,91.296v247.473
				c0,25.704,20.916,46.618,46.624,46.618h188.586c25.706,0,46.618-20.913,46.618-46.618V217.909
				C396.914,170.827,361.33,131.917,315.645,126.612z M217.688,83.256h0.001c0-2.859,2.417-5.275,5.275-5.275h66.077
				c2.857,0,5.269,2.417,5.269,5.275v42.718h-76.622V83.256z M375.58,441.381h-53.99c-5.892,0-10.667,4.778-10.667,10.667
				c0,5.892,4.776,10.667,10.667,10.667h53.989v2.667c0,13.94-11.341,25.283-25.283,25.283H161.71
				c-13.944,0-25.289-11.343-25.289-25.283V228.577h28.684c5.889,0,10.667-4.776,10.667-10.667c0-5.889-4.778-10.667-10.667-10.667
				h-27.877c5.159-33.886,34.49-59.934,69.795-59.934h97.957c38.93,0,70.601,31.67,70.601,70.601V441.381z"/>
			<path d="M269.524,258.601c3.69-5.417,10.263-8.245,15.476-8.245c5.892,0,10.667-4.778,10.667-10.667
				c0-5.892-4.776-10.667-10.667-10.667c-16.255,0-33.6,10.832-38.376,28.937c-36.759,4.632-65.292,36.065-65.292,74.057
				c0,32.334,21.125,61.169,51.691,71.055c5.963,5.215,13.756,8.384,22.281,8.384c8.163,0,15.662-2.903,21.518-7.727
				c31.838-9.207,53.846-38.309,53.846-71.712C330.668,295.464,304.26,264.982,269.524,258.601z M267.791,378.844
				c-0.004,0.046-0.015,0.09-0.019,0.135c-0.306,2.721-1.491,5.174-3.259,7.086c-0.121,0.131-0.236,0.269-0.363,0.396
				c-2.271,2.258-5.399,3.659-8.849,3.659c-3.83,0-7.261-1.729-9.565-4.442c-0.088-0.102-0.173-0.208-0.256-0.315
				c-0.164-0.204-0.323-0.415-0.473-0.631c-0.075-0.107-0.148-0.214-0.219-0.323c-0.146-0.223-0.286-0.452-0.417-0.686
				c-0.063-0.112-0.125-0.225-0.186-0.337c-0.123-0.236-0.24-0.477-0.348-0.723c-0.054-0.121-0.109-0.24-0.158-0.363
				c-0.1-0.242-0.188-0.49-0.271-0.739c-0.044-0.131-0.092-0.262-0.131-0.398c-0.075-0.247-0.135-0.5-0.196-0.754
				c-0.031-0.14-0.068-0.277-0.096-0.417c-0.052-0.269-0.09-0.544-0.125-0.817c-0.017-0.129-0.042-0.256-0.054-0.385
				c-0.037-0.402-0.061-0.811-0.061-1.222c0-6.923,5.633-12.558,12.557-12.558c6.921,0,12.553,5.633,12.553,12.558
				C267.856,377.998,267.835,378.424,267.791,378.844z M289.002,373.961c-0.044-0.415-0.102-0.825-0.16-1.233
				c-0.017-0.111-0.027-0.223-0.044-0.332c-0.083-0.544-0.181-1.082-0.29-1.615c-0.031-0.155-0.07-0.304-0.104-0.457
				c-0.081-0.379-0.166-0.758-0.26-1.134c-0.052-0.197-0.11-0.392-0.162-0.588c-0.09-0.325-0.179-0.65-0.277-0.971
				c-0.067-0.212-0.138-0.423-0.208-0.634c-0.098-0.3-0.196-0.601-0.304-0.896c-0.077-0.217-0.16-0.429-0.242-0.642
				c-0.11-0.288-0.221-0.573-0.339-0.857c-0.087-0.214-0.181-0.425-0.275-0.638c-0.123-0.277-0.245-0.553-0.375-0.827
				c-0.098-0.208-0.202-0.417-0.304-0.625c-0.135-0.269-0.271-0.538-0.413-0.802c-0.109-0.204-0.219-0.406-0.332-0.608
				c-0.148-0.262-0.298-0.523-0.45-0.782c-0.116-0.197-0.236-0.394-0.356-0.59c-0.16-0.256-0.323-0.509-0.49-0.761
				c-0.125-0.19-0.25-0.379-0.379-0.566c-0.173-0.252-0.35-0.498-0.529-0.746c-0.131-0.179-0.26-0.358-0.396-0.538
				c-0.188-0.247-0.381-0.49-0.577-0.734c-0.135-0.166-0.267-0.337-0.406-0.502c-0.206-0.25-0.421-0.492-0.636-0.735
				c-0.133-0.15-0.265-0.304-0.402-0.452c-0.234-0.258-0.477-0.509-0.721-0.756c-0.123-0.127-0.244-0.258-0.369-0.383
				c-0.293-0.293-0.596-0.577-0.9-0.859c-0.081-0.075-0.16-0.155-0.243-0.229c-0.392-0.358-0.794-0.706-1.202-1.044
				c-0.046-0.037-0.094-0.073-0.14-0.11c-0.363-0.296-0.727-0.586-1.102-0.865c-0.133-0.102-0.271-0.196-0.406-0.293
				c-0.289-0.212-0.581-0.424-0.879-0.625c-0.164-0.112-0.334-0.219-0.5-0.33c-0.275-0.179-0.55-0.358-0.829-0.531
				c-0.183-0.112-0.369-0.219-0.555-0.327c-0.271-0.16-0.542-0.319-0.817-0.47c-0.196-0.109-0.396-0.212-0.594-0.317
				c-0.271-0.142-0.542-0.284-0.817-0.419c-0.206-0.102-0.415-0.201-0.623-0.295c-0.275-0.129-0.548-0.254-0.827-0.375
				c-0.214-0.094-0.429-0.183-0.648-0.273c-0.277-0.112-0.556-0.223-0.837-0.332c-0.221-0.083-0.442-0.164-0.665-0.243
				c-0.286-0.1-0.571-0.198-0.859-0.29c-0.225-0.075-0.452-0.146-0.68-0.214c-0.289-0.088-0.583-0.171-0.875-0.25
				c-0.229-0.063-0.459-0.125-0.689-0.183c-0.3-0.075-0.602-0.142-0.905-0.208c-0.229-0.052-0.459-0.104-0.689-0.15
				c-0.31-0.061-0.623-0.114-0.938-0.166c-0.227-0.039-0.452-0.081-0.682-0.114c-0.332-0.05-0.665-0.087-0.998-0.127
				c-0.214-0.025-0.429-0.057-0.645-0.077c-0.371-0.037-0.748-0.061-1.123-0.085c-0.181-0.013-0.361-0.029-0.544-0.039
				c-0.558-0.027-1.121-0.042-1.688-0.042c-0.56,0-1.117,0.015-1.67,0.042c-0.183,0.009-0.363,0.027-0.544,0.037
				c-0.371,0.026-0.741,0.05-1.108,0.085c-0.214,0.021-0.427,0.05-0.64,0.075c-0.332,0.037-0.662,0.077-0.99,0.125
				c-0.225,0.033-0.448,0.073-0.673,0.111c-0.313,0.052-0.625,0.107-0.933,0.166c-0.229,0.046-0.454,0.094-0.682,0.144
				c-0.3,0.067-0.602,0.135-0.9,0.208c-0.227,0.057-0.452,0.114-0.677,0.175c-0.295,0.081-0.588,0.164-0.881,0.252
				c-0.221,0.067-0.442,0.133-0.66,0.204c-0.291,0.094-0.581,0.194-0.87,0.293c-0.212,0.077-0.427,0.15-0.64,0.232
				c-0.291,0.109-0.581,0.225-0.868,0.344c-0.202,0.081-0.404,0.16-0.604,0.245c-0.302,0.131-0.601,0.269-0.896,0.406
				c-0.181,0.085-0.365,0.164-0.542,0.252c-0.339,0.164-0.673,0.339-1.004,0.514c-0.131,0.068-0.267,0.135-0.398,0.206
				c-0.461,0.252-0.914,0.512-1.362,0.785c-0.079,0.048-0.156,0.1-0.234,0.148c-0.367,0.227-0.73,0.459-1.088,0.698
				c-0.153,0.102-0.302,0.212-0.452,0.317c-0.277,0.194-0.555,0.385-0.825,0.588c-0.169,0.125-0.334,0.254-0.5,0.383
				c-0.245,0.19-0.494,0.381-0.734,0.577c-0.173,0.14-0.339,0.284-0.509,0.427c-0.229,0.194-0.459,0.389-0.684,0.592
				c-0.166,0.15-0.332,0.302-0.496,0.457c-0.219,0.202-0.433,0.406-0.645,0.614c-0.162,0.158-0.323,0.319-0.481,0.481
				c-0.208,0.212-0.413,0.427-0.614,0.644c-0.155,0.164-0.306,0.331-0.459,0.5c-0.198,0.223-0.394,0.45-0.588,0.68
				c-0.144,0.169-0.289,0.339-0.429,0.512c-0.194,0.238-0.383,0.481-0.571,0.723c-0.129,0.171-0.262,0.339-0.391,0.512
				c-0.196,0.262-0.383,0.531-0.571,0.802c-0.111,0.158-0.225,0.315-0.334,0.475c-0.223,0.331-0.435,0.671-0.648,1.01
				c-0.065,0.104-0.133,0.206-0.198,0.31c-0.271,0.446-0.531,0.9-0.781,1.358c-0.07,0.131-0.138,0.267-0.206,0.398
				c-0.175,0.332-0.35,0.665-0.514,1.002c-0.087,0.183-0.171,0.369-0.256,0.553c-0.135,0.293-0.271,0.588-0.4,0.885
				c-0.087,0.204-0.169,0.411-0.252,0.617c-0.116,0.284-0.231,0.569-0.339,0.857c-0.081,0.217-0.157,0.433-0.234,0.652
				c-0.1,0.284-0.198,0.569-0.289,0.857c-0.073,0.225-0.142,0.45-0.208,0.675c-0.085,0.288-0.169,0.575-0.245,0.865
				c-0.063,0.229-0.123,0.461-0.179,0.691c-0.073,0.293-0.14,0.588-0.204,0.883c-0.052,0.232-0.102,0.465-0.148,0.7
				c-0.059,0.3-0.111,0.603-0.162,0.907c-0.039,0.234-0.079,0.467-0.114,0.7c-0.011,0.077-0.027,0.155-0.037,0.232
				c-11.78-9.935-19.07-24.785-19.07-40.844c0-29.406,23.927-53.331,53.335-53.331c29.406,0,53.331,23.925,53.331,53.331
				C309.333,348.815,301.545,364.093,289.002,373.961z"/>
			<path d="M276.003,310.684c-5.889,0-10.67,4.779-10.67,10.667c0,5.891,4.779,10.665,10.67,10.665
				c5.889,0,10.663-4.776,10.663-10.665C286.666,315.464,281.893,310.684,276.003,310.684z"/>
			<path d="M236.002,310.684c-5.889,0-10.67,4.779-10.67,10.667c0,5.891,4.779,10.665,10.67,10.665
				c5.891,0,10.663-4.776,10.663-10.665C246.666,315.464,241.893,310.684,236.002,310.684z"/>
			<path d="M290.942,441.376h-0.256c-5.891,0-10.667,4.778-10.667,10.667c0,5.892,4.777,10.667,10.667,10.667h0.256
				c5.892,0,10.667-4.776,10.667-10.667C301.609,446.153,296.834,441.376,290.942,441.376z"/>
			<path d="M195.75,228.571h0.252c5.893,0,10.667-4.776,10.667-10.667c0-5.889-4.775-10.667-10.667-10.667h-0.252
				c-5.889,0-10.667,4.778-10.667,10.667C185.083,223.797,189.859,228.571,195.75,228.571z"/>
		</g>
	</g>
</g>
<g>
</g>
<g>
</g>
<g>
</g>
<g>
</g>
<g>
</g>
<g>
</g>
<g>
</g>
<g>
</g>
<g>
</g>
<g>
</g>
<g>
</g>
<g>
</g>
<g>
</g>
<g>
</g>
<g>
</g>
</svg>