<?xml version="1.0" encoding="iso-8859-1"?>
<!-- Uploaded to: SVG Repo, www.svgrepo.com, Transformed by: SVG Repo Tools -->
<svg fill="#000000" height="800px" width="800px" version="1.1" id="Layer_1" xmlns="http://www.w3.org/2000/svg" xmlns:xlink="http://www.w3.org/1999/xlink" 
	 viewBox="0 0 512 512" xml:space="preserve">
<g>
	<g>
		<g>
			<path d="M416.001,405.331V266.67c0-88.225-71.776-160.001-160-160.001c-88.225,0-160.002,71.776-160.002,160.001v138.662
				c-29.409,0.001-53.335,23.926-53.335,53.333v42.666c0,5.892,4.777,10.669,10.669,10.669h405.332
				c5.892,0,10.669-4.776,10.669-10.669v-42.666C469.334,429.257,445.408,405.331,416.001,405.331z M117.337,266.67
				c0-76.459,62.206-138.663,138.664-138.663S394.663,190.21,394.663,266.67v138.662H266.67v-97.346
				c18.382-4.75,32.001-21.472,32.001-41.317c0-23.528-19.141-42.669-42.669-42.669c-23.528,0-42.668,19.141-42.668,42.669
				c0,19.845,13.619,36.568,32,41.317v97.346H117.337V266.67z M256.001,288c-11.762,0-21.331-9.569-21.331-21.33
				c0-11.762,9.569-21.332,21.331-21.332c11.762,0,21.332,9.57,21.332,21.332C277.333,278.431,267.763,288,256.001,288z
				 M447.996,490.663H64.002v-31.998c0-17.643,14.356-31.995,32.001-31.995h319.998c17.642,0,31.995,14.354,31.995,31.995V490.663z"
				/>
			<path d="M69.336,266.67c0-5.892-4.776-10.669-10.669-10.669H10.669C4.776,256.001,0,260.777,0,266.67s4.776,10.669,10.669,10.669
				h47.999C64.561,277.339,69.336,272.562,69.336,266.67z"/>
			<path d="M148.096,101.109c1.976,3.423,5.563,5.336,9.25,5.336c1.809,0,3.644-0.461,5.324-1.431
				c5.103-2.946,6.851-9.471,3.905-14.573l-23.998-41.569c-2.947-5.103-9.472-6.851-14.573-3.905
				c-5.103,2.946-6.851,9.471-3.905,14.573L148.096,101.109z"/>
			<path d="M256.001,80.008c5.892,0,10.669-4.776,10.669-10.669v-58.67C266.67,4.776,261.893,0,256.001,0
				c-5.891,0-10.669,4.776-10.669,10.669v58.669C245.332,75.232,250.11,80.008,256.001,80.008z"/>
			<path d="M28.966,147.909l50.805,29.334c1.68,0.97,3.515,1.431,5.325,1.431c3.687,0,7.273-1.914,9.249-5.335
				c2.947-5.103,1.198-11.628-3.905-14.573l-50.805-29.334c-5.101-2.945-11.627-1.197-14.573,3.905
				C22.114,138.437,23.863,144.963,28.966,147.909z"/>
			<path d="M426.904,178.673c1.809,0,3.644-0.461,5.325-1.431l50.807-29.334c5.102-2.946,6.851-9.471,3.905-14.573
				c-2.947-5.103-9.472-6.852-14.573-3.905l-50.807,29.334c-5.103,2.946-6.851,9.471-3.905,14.573
				C419.63,176.76,423.216,178.673,426.904,178.673z"/>
			<path d="M349.331,105.014c1.68,0.97,3.514,1.431,5.324,1.431c3.688,0,7.274-1.914,9.25-5.336l23.999-41.568
				c2.947-5.103,1.197-11.628-3.905-14.573c-5.102-2.946-11.627-1.198-14.573,3.905L345.426,90.44
				C342.481,95.544,344.228,102.069,349.331,105.014z"/>
			<path d="M501.331,256.001h-48.001c-5.892,0-10.669,4.776-10.669,10.669s4.776,10.669,10.669,10.669h48.001
				c5.89,0,10.669-4.776,10.669-10.669S507.223,256.001,501.331,256.001z"/>
			<path d="M149.335,255.518c-5.891,0-10.669,4.776-10.669,10.669v0.483c0,5.892,4.776,10.669,10.669,10.669
				c5.892,0,10.669-4.776,10.669-10.669v-0.483C160.004,260.294,155.228,255.518,149.335,255.518z"/>
			<path d="M266.67,160.004c0-5.892-4.776-10.669-10.669-10.669c-51.354,0-96.296,32.885-111.834,81.83
				c-1.783,5.616,1.325,11.614,6.941,13.397c1.073,0.34,2.16,0.503,3.229,0.503c4.525,0,8.725-2.901,10.166-7.443
				c12.713-40.044,49.483-66.949,91.497-66.949C261.893,170.673,266.67,165.896,266.67,160.004z"/>
			<path d="M374.434,447.996h-54.437c-5.892,0-10.669,4.776-10.669,10.669s4.776,10.669,10.669,10.669h54.437
				c5.891,0,10.669-4.776,10.669-10.669S380.326,447.996,374.434,447.996z"/>
			<path d="M405.332,447.999h-0.254c-5.892,0-10.669,4.776-10.669,10.669s4.776,10.669,10.669,10.669h0.254
				c5.891,0,10.669-4.776,10.669-10.669S411.223,447.999,405.332,447.999z"/>
		</g>
	</g>
</g>
<g>
</g>
<g>
</g>
<g>
</g>
<g>
</g>
<g>
</g>
<g>
</g>
<g>
</g>
<g>
</g>
<g>
</g>
<g>
</g>
<g>
</g>
<g>
</g>
<g>
</g>
<g>
</g>
<g>
</g>
</svg>