<?xml version="1.0" encoding="iso-8859-1"?>
<!-- Uploaded to: SVG Repo, www.svgrepo.com, Transformed by: SVG Repo Tools -->
<svg fill="#000000" version="1.1" id="Layer_1" xmlns="http://www.w3.org/2000/svg" xmlns:xlink="http://www.w3.org/1999/xlink" 
	 viewBox="0 0 512 512" xml:space="preserve">
<g>
	<g>
		<path d="M0,39.184v329.143h216.816v51.2h-33.959V435.2h146.286v-15.673h-33.959v-51.2h80.98v75.755
			c0,15.845,12.891,28.735,28.735,28.735h52.245c15.844,0,28.735-12.89,28.735-28.735v-75.755H512V39.184H0z M279.51,419.527h-47.02
			v-51.2h47.02V419.527z M470.204,444.082c0,7.203-5.859,13.061-13.061,13.061h-52.245c-7.202,0-13.061-5.859-13.061-13.061V236.669
			h78.367V444.082z M496.327,352.653h-10.449V220.996H376.163v131.657H15.673V54.857h480.653V352.653z"/>
	</g>
</g>
<g>
	<g>
		<polygon points="31.347,70.531 31.347,336.98 363.102,336.98 363.102,321.306 47.02,321.306 47.02,86.204 265.403,86.204 
			167.954,183.654 179.038,194.737 287.57,86.204 320.672,86.204 223.222,183.654 234.305,194.737 342.838,86.204 464.98,86.204 
			464.98,207.935 480.653,207.935 480.653,70.531 		"/>
	</g>
</g>
<g>
	<g>
		<rect x="406.465" y="331.755" width="15.673" height="15.673"/>
	</g>
</g>
<g>
	<g>
		<rect x="443.037" y="331.755" width="15.673" height="15.673"/>
	</g>
</g>
<g>
	<g>
		<rect x="406.465" y="300.408" width="15.673" height="15.673"/>
	</g>
</g>
<g>
	<g>
		<rect x="443.037" y="300.408" width="15.673" height="15.673"/>
	</g>
</g>
<g>
	<g>
		<rect x="406.465" y="269.061" width="15.673" height="15.673"/>
	</g>
</g>
<g>
	<g>
		<rect x="443.037" y="269.061" width="15.673" height="15.673"/>
	</g>
</g>
<g>
</g>
<g>
</g>
<g>
</g>
<g>
</g>
<g>
</g>
<g>
</g>
<g>
</g>
<g>
</g>
<g>
</g>
<g>
</g>
<g>
</g>
<g>
</g>
<g>
</g>
<g>
</g>
<g>
</g>
</svg>