<?xml version="1.0" encoding="utf-8"?>
<!-- Uploaded to: SVG Repo, www.svgrepo.com, Transformed by: SVG Repo Tools -->
<svg fill="#000000" height="800px" width="800px" version="1.2" baseProfile="tiny" id="Layer_1" xmlns="http://www.w3.org/2000/svg" xmlns:xlink="http://www.w3.org/1999/xlink"
	  viewBox="0 0 256 256" xml:space="preserve">
<g id="XMLID_36_">
	<path id="XMLID_8_" d="M57.4,11c1.4-1.4,1.4-3.3,0-4.4c-1.4-1.1-3.3-1.4-4.4,0l-16.2,16l4.4,4.4L57.4,11z"/>
	<path id="XMLID_7_" d="M62.4,20.4c1.4-1.4,1.4-3.3,0-4.4c-1.4-1.4-3.3-1.4-4.4,0L44.2,29.7l4.4,4.4L62.4,20.4z"/>
	<path id="XMLID_6_" d="M71.7,25.1c1.4-1.4,1.4-3.3,0-4.4c-1.4-1.4-3.3-1.4-4.4,0L51.1,36.9l4.4,4.4L71.7,25.1z"/>
	<path id="XMLID_5_" d="M76.7,34.7c1.4-1.4,1.4-3.3,0-4.4c-1.4-1.4-3.3-1.4-4.4,0L58.5,44.1l4.4,4.4L76.7,34.7z"/>
	<path id="XMLID_4_" d="M86,39.4c1.4-1.4,1.4-3.3,0-4.4c-1.4-1.4-3.3-1.4-4.4,0L65.4,51.2l4.4,4.4L86,39.4z"/>
	<path id="XMLID_3_" d="M100.3,53.7L100.3,53.7c1.4-1.4,1.4-3.3,0-4.4c-1.4-1.4-3.3-1.4-4.4,0L79.7,65.5l4.4,4.4L100.3,53.7z"/>
	<path id="XMLID_2_" d="M90.7,48.7c1.4-1.4,1.4-3.3,0-4.4c-1.4-1.4-3.3-1.4-4.4,0L72.6,58.1l4.4,4.4L90.7,48.7z"/>
	<path id="XMLID_1_" d="M238.8,228.1l-91.9-91.6c-3-3-7.2-4.1-11.3-3.6L78.1,75.4l3.6-3.6L34.3,24.2l-3.9,3.6
		c-3.9-3.9-10.2-3.9-14,0.3c-3.9,3.9-3.9,10.5,0,14.3l204.2,204.2l0.6,0.6c1.7,1.7,3.6,2.5,5.5,2.8c4.1,1.1,8.8,0,12.1-3.3
		C243.7,241.4,243.7,233.1,238.8,228.1z"/>
</g>
</svg>