<?xml version="1.0" encoding="utf-8"?><!-- Uploaded to: SVG Repo, www.svgrepo.com, Generator: SVG Repo Mixer Tools -->
<svg version="1.1" id="designs" xmlns="http://www.w3.org/2000/svg" xmlns:xlink="http://www.w3.org/1999/xlink" 
	 width="800px" height="800px" viewBox="0 0 32 32" xml:space="preserve">
<style type="text/css">
	.sketchy_een{fill:#111918;}
</style>
<path class="sketchy_een" d="M29.879,27.345c-0.068-0.107-0.117-0.227-0.18-0.336c-0.094-0.164-0.193-0.326-0.287-0.49
	c-0.201-0.354-0.389-0.713-0.582-1.07c-0.398-0.732-0.836-1.439-1.219-2.182c-0.387-0.754-0.768-1.512-1.15-2.268
	c-0.398-0.785-0.85-1.541-1.281-2.311c-0.443-0.789-0.832-1.609-1.252-2.412c-0.408-0.781-0.818-1.564-1.219-2.35
	c-0.414-0.812-0.836-1.621-1.258-2.428c-0.432-0.818-0.877-1.629-1.291-2.459c-0.406-0.816-0.826-1.627-1.24-2.439
	c-0.465-0.918-0.965-1.824-1.496-2.705c-0.152-0.255-0.417-0.403-0.696-0.427c-0.083-0.025-0.168-0.041-0.255-0.041
	c-0.077,0-0.154,0.01-0.229,0.03c-0.23,0.064-0.385,0.207-0.518,0.398c-0.287,0.412-0.561,0.83-0.826,1.258
	c-0.217,0.35-0.416,0.713-0.641,1.057c-0.459,0.701-0.977,1.361-1.391,2.092c-0.432,0.756-0.885,1.5-1.328,2.25
	c-0.432,0.732-0.816,1.49-1.238,2.229c-0.422,0.744-0.875,1.471-1.311,2.207c-0.434,0.732-0.822,1.488-1.25,2.225
	c-0.42,0.727-0.836,1.457-1.268,2.176c-0.439,0.729-0.844,1.475-1.27,2.213c-0.514,0.893-1.004,1.799-1.564,2.664
	c-0.254,0.395-0.512,0.783-0.758,1.182c-0.248,0.4-0.498,0.803-0.762,1.193c-0.162,0.24-0.137,0.541-0.012,0.791
	c-0.02,0.072-0.043,0.143-0.043,0.219c0,0.215,0.086,0.424,0.238,0.576c0.162,0.162,0.352,0.217,0.576,0.238
	c0.848,0.076,1.701,0.064,2.553,0.08c0.867,0.014,1.734,0.004,2.602,0.016c0.818,0.01,1.637,0.021,2.457,0.027
	c0.842,0.004,1.684,0.041,2.525,0.031c0.842-0.012,1.684-0.045,2.525-0.035c0.447,0.004,0.895,0.014,1.34,0.043
	c0.418,0.027,0.834,0.076,1.254,0.098c0.814,0.041,1.627,0.029,2.443,0.039c0.844,0.01,1.684,0.027,2.527,0.074
	c0.98,0.053,1.959,0.129,2.941,0.164c0.461,0.018,0.922,0.023,1.385,0.031c0.422,0.008,0.842,0.016,1.262-0.018
	c0.23-0.02,0.43-0.08,0.598-0.248c0.033-0.033,0.05-0.078,0.076-0.115c0.065-0.019,0.131-0.029,0.193-0.066
	C29.967,28.31,30.131,27.751,29.879,27.345z M26.428,27.276c-0.812-0.02-1.627-0.09-2.441-0.129
	c-0.404-0.021-0.811-0.059-1.217-0.072c-0.404-0.014-0.809-0.021-1.215-0.033c-0.844-0.023-1.688-0.031-2.533-0.037
	c-0.848-0.006-1.691-0.098-2.537-0.125c-0.832-0.029-1.67-0.004-2.502,0.027c-0.852,0.033-1.701,0.027-2.553,0.021
	c-0.846-0.008-1.689-0.006-2.535,0.01c-1,0.016-1.998,0.035-2.996,0.012c-0.651-0.015-1.304-0.042-1.955-0.08
	c0.281-0.451,0.56-0.904,0.848-1.352c0.465-0.723,0.881-1.469,1.287-2.225c0.801-1.486,1.672-2.934,2.52-4.393
	c0.439-0.756,0.896-1.5,1.326-2.264c0.402-0.711,0.85-1.396,1.273-2.094c0.443-0.73,0.848-1.479,1.27-2.221
	c0.43-0.758,0.883-1.504,1.33-2.252c0.256-0.428,0.502-0.861,0.748-1.295c0.254-0.449,0.566-0.865,0.859-1.291
	c0.275-0.4,0.531-0.814,0.791-1.225c0.096-0.151,0.202-0.296,0.3-0.446c0.31,0.527,0.627,1.051,0.922,1.586
	c0.426,0.773,0.799,1.574,1.18,2.367c0.385,0.803,0.816,1.582,1.238,2.365c0.432,0.801,0.838,1.617,1.27,2.42
	c0.854,1.592,1.646,3.217,2.496,4.812c0.408,0.766,0.854,1.512,1.26,2.279c0.404,0.766,0.803,1.535,1.195,2.307
	c0.393,0.768,0.84,1.504,1.258,2.256c0.198,0.356,0.383,0.717,0.574,1.074C27.402,27.283,26.916,27.286,26.428,27.276z
	 M16.968,18.518c0.021,0.545,0.064,1.088,0.066,1.633c0.002,0.457-0.383,0.838-0.838,0.838c-0.471,0-0.818-0.381-0.838-0.838
	c-0.021-0.553-0.035-1.105-0.049-1.658c-0.014-0.562-0.027-1.133-0.006-1.695c0.021-0.555,0.055-1.109,0.07-1.666
	c0.016-0.623,0.014-1.246,0.02-1.869c0.006-0.416,0.346-0.766,0.768-0.766c0.41,0,0.773,0.348,0.766,0.766
	c-0.023,1.189-0.057,2.377-0.014,3.566C16.933,17.392,16.946,17.956,16.968,18.518z M16.969,23.753c0,0.451-0.377,0.828-0.828,0.828
	s-0.828-0.377-0.828-0.828s0.377-0.828,0.828-0.828S16.969,23.302,16.969,23.753z"/>
</svg>