<?xml version="1.0" encoding="iso-8859-1"?>
<!-- Uploaded to: SVG Repo, www.svgrepo.com, Transformed by: SVG Repo Tools -->
<!DOCTYPE svg PUBLIC "-//W3C//DTD SVG 1.1//EN" "http://www.w3.org/Graphics/SVG/1.1/DTD/svg11.dtd">
<svg fill="#000000" height="800px" width="800px" version="1.1" id="Capa_1" xmlns="http://www.w3.org/2000/svg" xmlns:xlink="http://www.w3.org/1999/xlink" 
	 viewBox="0 0 495.016 495.016" xml:space="preserve">
<g>
	<path d="M425.686,0H69.33c-7.857,0-14.25,6.393-14.25,14.25v466.516c0,7.857,6.393,14.25,14.25,14.25h356.356
		c7.857,0,14.25-6.393,14.25-14.25V14.25C439.936,6.393,433.543,0,425.686,0z M63.58,429.978h96.244c2.347,0,4.25-1.902,4.25-4.25
		c0-2.348-1.903-4.25-4.25-4.25H63.58V399.98h27.247c2.347,0,4.25-1.902,4.25-4.25c0-2.348-1.903-4.25-4.25-4.25H63.58V180.99
		h55.746c2.347,0,4.25-1.902,4.25-4.25c0-2.348-1.903-4.25-4.25-4.25H63.58v-36.498h367.856V397.48h-66.123
		c-2.347,0-4.25,1.902-4.25,4.25c0,2.348,1.903,4.25,4.25,4.25h66.123v19.998h-25.625c-2.347,0-4.25,1.902-4.25,4.25
		c0,2.348,1.903,4.25,4.25,4.25h25.625v13.998H63.58V429.978z M69.33,8.5h356.356c3.17,0,5.75,2.579,5.75,5.75v113.242H63.58V14.25
		C63.58,11.079,66.159,8.5,69.33,8.5z M425.686,486.516H69.33c-3.17,0-5.75-2.579-5.75-5.75v-23.789h367.856v23.789
		C431.436,483.936,428.856,486.516,425.686,486.516z"/>
	<path d="M247.508,158.154c-73.471,0-133.243,59.772-133.243,133.242c0,73.47,59.773,133.242,133.243,133.242
		s133.243-59.772,133.243-133.242C380.751,217.927,320.978,158.154,247.508,158.154z M247.508,416.139
		c-68.784,0-124.743-55.959-124.743-124.742s55.96-124.742,124.743-124.742s124.743,55.959,124.743,124.742
		S316.292,416.139,247.508,416.139z"/>
	<path d="M247.508,188.707c-56.623,0.002-102.688,46.068-102.688,102.69c0,56.623,46.065,102.689,102.688,102.689
		s102.688-46.065,102.688-102.688C350.196,234.774,304.13,188.707,247.508,188.707z M247.508,197.207
		c51.935,0,94.188,42.254,94.188,94.191c0,1.912-0.064,3.809-0.177,5.692c-13.22-0.528-20.181-4.804-27.521-9.315
		c-8.502-5.226-17.294-10.629-34.767-10.629c-17.472,0-26.264,5.403-34.766,10.629c-7.841,4.819-15.247,9.371-30.316,9.371
		c-15.048,0-22.25-4.515-29.875-9.295c-7.563-4.74-15.382-9.614-29.912-10.453C161.143,232.078,200.329,197.209,247.508,197.207z
		 M247.508,385.586c-51.936,0-94.188-42.253-94.188-94.189c0-1.858,0.06-3.703,0.167-5.535c12.635,0.666,19.286,4.811,26.271,9.191
		c8.308,5.208,16.899,10.594,34.391,10.594c17.473,0,26.264-5.403,34.767-10.629c7.841-4.819,15.247-9.371,30.315-9.371
		c15.069,0,22.475,4.552,30.316,9.371c7.881,4.844,16.024,9.832,31.085,10.536C333.784,350.798,294.633,385.586,247.508,385.586z"/>
	<path d="M379.983,94.033c14.75,0,26.749-11.999,26.749-26.748c0-14.75-11.999-26.75-26.749-26.75s-26.749,12-26.749,26.75
		C353.234,82.034,365.234,94.033,379.983,94.033z M379.983,49.035c10.063,0,18.249,8.187,18.249,18.25
		c0,10.062-8.186,18.248-18.249,18.248s-18.249-8.187-18.249-18.248C361.734,57.222,369.921,49.035,379.983,49.035z"/>
	<path d="M258.491,86.537c10.614,0,19.25-8.636,19.25-19.25s-8.636-19.25-19.25-19.25c-10.614,0-19.25,8.636-19.25,19.25
		S247.877,86.537,258.491,86.537z M258.491,56.537c5.928,0,10.75,4.822,10.75,10.75s-4.822,10.75-10.75,10.75
		s-10.75-4.822-10.75-10.75S252.564,56.537,258.491,56.537z"/>
	<path d="M312.491,86.537c10.614,0,19.25-8.636,19.25-19.25s-8.636-19.25-19.25-19.25c-10.614,0-19.25,8.636-19.25,19.25
		S301.877,86.537,312.491,86.537z M312.491,56.537c5.928,0,10.75,4.822,10.75,10.75s-4.822,10.75-10.75,10.75
		c-5.928,0-10.75-4.822-10.75-10.75S306.564,56.537,312.491,56.537z"/>
	<path d="M100.496,101.533H206.49c7.857,0,14.25-6.393,14.25-14.25V47.287c0-7.857-6.393-14.25-14.25-14.25H100.496
		c-7.857,0-14.25,6.393-14.25,14.25v39.996C86.246,95.141,92.639,101.533,100.496,101.533z M94.746,47.287
		c0-3.171,2.58-5.75,5.75-5.75H206.49c3.17,0,5.75,2.579,5.75,5.75v39.996c0,3.171-2.58,5.75-5.75,5.75H100.496
		c-3.17,0-5.75-2.579-5.75-5.75V47.287z"/>
</g>
<g>
</g>
<g>
</g>
<g>
</g>
<g>
</g>
<g>
</g>
<g>
</g>
<g>
</g>
<g>
</g>
<g>
</g>
<g>
</g>
<g>
</g>
<g>
</g>
<g>
</g>
<g>
</g>
<g>
</g>
</svg>