<?xml version="1.0" encoding="iso-8859-1"?>
<!-- Uploaded to: SVG Repo, www.svgrepo.com, Transformed by: SVG Repo Tools -->
<svg fill="#000000" height="800px" width="800px" version="1.1" id="Layer_1" xmlns="http://www.w3.org/2000/svg" xmlns:xlink="http://www.w3.org/1999/xlink" 
	 viewBox="0 0 512 512" xml:space="preserve">
<g>
	<g>
		<path d="M406.404,207.908c-0.404-2.172-2.496-3.608-4.664-3.204c-4.528,0.84-7.76,2.356-10.612,3.688
			c-4.16,1.944-7.748,3.624-15.412,3.624c-7.656,0-11.244-1.68-15.396-3.624c-4.38-2.048-9.352-4.376-18.784-4.376
			c-9.436,0-14.408,2.324-18.792,4.376c-4.152,1.944-7.744,3.624-15.4,3.624s-11.244-1.68-15.396-3.624
			c-4.38-2.048-9.352-4.376-18.784-4.376s-14.396,2.324-18.78,4.376c-4.152,1.944-7.74,3.624-15.392,3.624
			c-7.652,0-11.24-1.68-15.392-3.624c-4.376-2.048-9.348-4.376-18.776-4.376c-9.432,0-14.396,2.324-18.78,4.376
			c-4.152,1.944-7.74,3.624-15.392,3.624s-11.24-1.68-15.392-3.624c-4.38-2.048-9.352-4.376-18.784-4.376
			c-9.432,0-14.396,2.324-18.78,4.376c-2.288,1.072-4.448,2.084-7.224,2.756c-2.144,0.524-3.464,2.684-2.94,4.832
			c0.524,2.148,2.684,3.468,4.832,2.944c3.556-0.864,6.18-2.096,8.724-3.284c4.152-1.944,7.74-3.62,15.392-3.62
			c7.656,0,11.244,1.68,15.396,3.624c4.38,2.048,9.348,4.376,18.78,4.376s14.396-2.324,18.78-4.376
			c4.152-1.944,7.74-3.624,15.392-3.624c7.648,0,11.236,1.68,15.388,3.624c4.38,2.048,9.348,4.376,18.78,4.376
			s14.396-2.324,18.78-4.376c4.152-1.944,7.74-3.624,15.392-3.624c7.656,0,11.244,1.68,15.396,3.624
			c4.38,2.048,9.352,4.376,18.784,4.376c9.436,0,14.404-2.324,18.788-4.376c4.156-1.944,7.744-3.624,15.404-3.624
			c7.656,0,11.244,1.68,15.396,3.624c4.38,2.048,9.352,4.376,18.784,4.376c9.44,0,14.412-2.328,18.796-4.38
			c2.652-1.24,5.156-2.416,8.684-3.068C405.372,212.164,406.808,210.08,406.404,207.908z"/>
	</g>
</g>
<g>
	<g>
		<path d="M259.08,237.02c-1.916-1.9-5.572-1.14-6.572,1.364c-0.188,0.472-0.284,0.976-0.284,1.484c0,2.208,1.804,4.016,4.016,4.016
			c1.812,0,3.412-1.244,3.884-2.992C260.496,239.508,260.096,238.028,259.08,237.02z"/>
	</g>
</g>
<g>
	<g>
		<path d="M298.28,228.652c-2.02-1.348-5.064-0.396-5.968,1.856c-0.188,0.472-0.284,0.976-0.284,1.484
			c0,2.208,1.808,4.016,4.02,4.016c1.636,0,3.124-1.024,3.732-2.54C300.484,231.712,299.86,229.7,298.28,228.652z"/>
	</g>
</g>
<g>
	<g>
		<path d="M211.02,221.404c-1.868-1.868-5.456-1.2-6.524,1.216c-0.228,0.512-0.344,1.064-0.344,1.624
			c0,2.208,1.808,4.016,4.02,4.016c1.784,0,3.376-1.212,3.868-2.932C212.436,223.932,212.048,222.432,211.02,221.404z"/>
	</g>
</g>
<g>
	<g>
		<path d="M187.16,237.048c-1.864-1.864-5.436-1.204-6.516,1.208c-0.232,0.516-0.348,1.068-0.348,1.632
			c0,2.208,1.808,4.016,4.02,4.016c1.784,0,3.372-1.212,3.864-2.932C188.576,239.576,188.188,238.076,187.16,237.048z"/>
	</g>
</g>
<g>
	<g>
		<path d="M228.172,247.72c-2.212,0-4.02,1.812-4.02,4.02s1.808,4.02,4.02,4.02c1.636,0,3.124-1.012,3.736-2.536
			c0.188-0.472,0.284-0.976,0.284-1.484C232.192,249.532,230.384,247.72,228.172,247.72z"/>
	</g>
</g>
<g>
	<g>
		<path d="M315.344,245.144c-1.912-1.9-5.572-1.14-6.572,1.364c-0.188,0.472-0.284,0.976-0.284,1.484
			c0,2.208,1.804,4.016,4.016,4.016c1.812,0,3.412-1.244,3.884-2.992C316.76,247.632,316.36,246.152,315.344,245.144z"/>
	</g>
</g>
<g>
	<g>
		<path d="M338.696,225.164c-1.872-1.86-5.444-1.192-6.512,1.224c-0.228,0.512-0.344,1.064-0.344,1.624
			c0,2.208,1.804,4.016,4.016,4.016c1.784,0,3.372-1.208,3.864-2.924C340.12,227.7,339.732,226.192,338.696,225.164z"/>
	</g>
</g>
<g>
	<g>
		<path d="M392.268,3.392C391.968,1.44,390.288,0,388.316,0H124.004c-1.972,0-3.652,1.44-3.952,3.392
			C107.352,85.988,100,139.396,100,167.964c0,86.024,69.98,156.012,156,156.012s156-69.988,156-156.016
			C412,141.916,406.468,95.772,392.268,3.392z M256,315.976c-81.608,0-148-66.4-148-148.012c0-27.536,7.42-81.648,19.436-159.964
			h257.448C398.452,96.548,404,143.004,404,167.96C404,249.576,337.608,315.976,256,315.976z"/>
	</g>
</g>
<g>
	<g>
		<path d="M268,316c-2.212,0-4,1.788-4,4v96c0,2.212,1.788,4,4,4c2.212,0,4-1.788,4-4v-96C272,317.788,270.212,316,268,316z"/>
	</g>
</g>
<g>
	<g>
		<path d="M244,316c-2.212,0-4,1.788-4,4v96c0,2.212,1.788,4,4,4c2.212,0,4-1.788,4-4v-96C248,317.788,246.212,316,244,316z"/>
	</g>
</g>
<g>
	<g>
		<path d="M344,487.8c-40.572,0-71.512-30.828-71.96-71.444c-0.024-2.196-1.808-4.352-4-4.352c-0.016,0-0.032,0-0.044,0
			c-2.208,0-3.98,2.228-3.956,4.436c0.484,43.784,32.86,77.516,75.96,79.464V504H172v-8.136
			c41.144-2.304,75.544-37.616,76.004-79.032c0.024-2.208-1.744-4.02-3.956-4.044c-2.132-0.072-4.024,1.744-4.044,3.956
			c-0.428,38.472-33.408,71.092-72.02,71.236c-2.204,0.008-3.984,1.796-3.984,4V508c0,2.212,1.788,4,4,4h176c2.212,0,4-1.788,4-4
			v-16.004C348,489.784,346.212,487.8,344,487.8z"/>
	</g>
</g>
<g>
	<g>
		<path d="M204,488h-36c-2.212,0-4,1.788-4,4c0,2.212,1.788,4,4,4h36c2.212,0,4-1.788,4-4C208,489.788,206.212,488,204,488z"/>
	</g>
</g>
<g>
	<g>
		<path d="M340,488H240c-2.212,0-4,1.788-4,4c0,2.212,1.788,4,4,4h100c2.212,0,4-1.788,4-4C344,489.788,342.212,488,340,488z"/>
	</g>
</g>
<g>
	<g>
		<path d="M371.812,3.444c-0.336-2.184-2.388-3.672-4.564-3.344c-2.184,0.336-3.68,2.384-3.344,4.564
			C376.864,88.64,384,146.644,384,167.992c0,70.58-57.42,128-128,128s-128-57.42-128-128c0-21.068,7.344-80.596,20.148-163.324
			c0.336-2.184-1.16-4.228-3.34-4.564c-2.168-0.332-4.232,1.156-4.568,3.34C127.376,86.56,120,146.532,120,167.992
			c0,74.992,61.008,136,136,136s136-61.008,136-136C392,138.652,379.348,52.304,371.812,3.444z"/>
	</g>
</g>
<g>
</g>
<g>
</g>
<g>
</g>
<g>
</g>
<g>
</g>
<g>
</g>
<g>
</g>
<g>
</g>
<g>
</g>
<g>
</g>
<g>
</g>
<g>
</g>
<g>
</g>
<g>
</g>
<g>
</g>
</svg>